<svg width="36" height="36" viewBox="0 0 36 36" fill="none" xmlns="http://www.w3.org/2000/svg">
<rect width="36" height="36" fill="#A4A6B0"/>
<path d="M17.1359 7.23359C17.5216 6.57132 18.4784 6.57132 18.8641 7.23359L21.7044 12.11C21.8457 12.3526 22.0825 12.5246 22.3569 12.5841L27.8723 13.7784C28.6214 13.9406 28.917 14.8505 28.4064 15.4221L24.6463 19.6302C24.4592 19.8396 24.3688 20.1179 24.3971 20.3972L24.9655 26.0118C25.0427 26.7743 24.2687 27.3367 23.5674 27.0276L18.4033 24.752C18.1463 24.6388 17.8537 24.6388 17.5968 24.752L12.4326 27.0276C11.7313 27.3367 10.9573 26.7743 11.0345 26.0118L11.603 20.3972C11.6312 20.1179 11.5408 19.8396 11.3537 19.6302L7.59366 15.4221C7.083 14.8505 7.37866 13.9406 8.12771 13.7784L13.6432 12.5841C13.9176 12.5246 14.1543 12.3526 14.2956 12.11L17.1359 7.23359Z" fill="white"/>
</svg>
