<svg width="15" height="14" viewBox="0 0 15 14" fill="none" xmlns="http://www.w3.org/2000/svg">
<path d="M6.8481 0.241794C7.04097 -0.0893399 7.51935 -0.0893394 7.71221 0.241794L9.67115 3.60507C9.7418 3.72637 9.86018 3.81239 9.99738 3.8421L13.8014 4.66584C14.1759 4.74694 14.3237 5.20191 14.0684 5.48766L11.4751 8.39003C11.3816 8.4947 11.3363 8.63388 11.3505 8.77354L11.7426 12.6459C11.7812 13.0272 11.3941 13.3084 11.0435 13.1538L7.48178 11.5843C7.35333 11.5277 7.20699 11.5277 7.07853 11.5843L3.51684 13.1538C3.16617 13.3084 2.77915 13.0272 2.81776 12.6459L3.20983 8.77354C3.22397 8.63388 3.17875 8.4947 3.08522 8.39003L0.491897 5.48766C0.23657 5.20191 0.384397 4.74694 0.758923 4.66584L4.56293 3.8421C4.70013 3.81239 4.81852 3.72637 4.88917 3.60507L6.8481 0.241794Z" fill="#A4A6B0"/>
</svg>
