<svg width="14" height="14" viewBox="0 0 14 14" fill="none" xmlns="http://www.w3.org/2000/svg">
<path d="M2.42821 13.4532C3.1636 13.4532 4.93563 12.6796 6.02342 11.9049C6.13927 11.8258 6.23046 11.7966 6.32705 11.7966C6.40352 11.8016 6.47559 11.8065 6.54333 11.8065C10.9094 11.8033 14 9.4123 14 6.17798C14 3.06034 10.8883 0.546631 7.00053 0.546631C3.11172 0.546631 0 3.06034 0 6.17798C0 8.12163 1.17051 9.85879 3.15393 10.9282C3.26312 10.9885 3.29445 11.0792 3.23846 11.1852C2.88461 11.7687 2.2941 12.4273 2.0567 12.7362C1.79041 13.0722 1.94411 13.4532 2.42821 13.4532Z" fill="white" fill-opacity="0.96"/>
</svg>
