<svg width="14" height="14" viewBox="0 0 14 14" fill="none" xmlns="http://www.w3.org/2000/svg">
<path d="M6.56218 0.789456C6.75252 0.445831 7.24658 0.445833 7.43693 0.789457L9.27063 4.09975C9.33958 4.22421 9.45828 4.3134 9.59701 4.34499L13.1957 5.16437C13.5617 5.2477 13.7087 5.68962 13.4657 5.97567L10.9865 8.89304C10.899 8.99606 10.8569 9.13016 10.8698 9.26474L11.2422 13.1315C11.2792 13.5161 10.8848 13.7955 10.5343 13.6331L7.20976 12.0927C7.07643 12.031 6.92268 12.031 6.78935 12.0927L3.46483 13.6331C3.11433 13.7955 2.7199 13.5161 2.75693 13.1315L3.12928 9.26474C3.14224 9.13016 3.10014 8.99606 3.01259 8.89304L0.533442 5.97567C0.290362 5.68962 0.437434 5.2477 0.803448 5.16437L4.4021 4.34499C4.54083 4.3134 4.65953 4.22421 4.72847 4.09975L6.56218 0.789456Z" fill="white"/>
</svg>
