<svg width="24" height="24" viewBox="0 0 24 24" fill="none" xmlns="http://www.w3.org/2000/svg">
<path d="M21.7544 10.748V13.9988C21.7544 16.3925 19.8138 18.3331 17.4201 18.3331H6.5843C4.19053 18.3331 2.25 16.3925 2.25 13.9988V11.3982C2.25 11.0391 2.54108 10.748 2.90015 10.748H21.7544Z" fill="#A4A6B0" stroke="#A4A6B0" stroke-width="1.23529" stroke-linecap="round" stroke-linejoin="round"/>
<path d="M6.58441 10.748H1.37891" stroke="#A4A6B0" stroke-width="1.23529" stroke-linecap="round"/>
<path d="M22.6235 10.748H17.418" stroke="#A4A6B0" stroke-width="1.23529" stroke-linecap="round"/>
<path d="M16.3359 18.3335L17.4195 20.5006" stroke="#A4A6B0" stroke-width="1.23529" stroke-linecap="round" stroke-linejoin="round"/>
<path d="M7.66951 18.3335L6.58594 20.5006" stroke="#A4A6B0" stroke-width="1.23529" stroke-linecap="round" stroke-linejoin="round"/>
<path d="M21.7522 10.7475V7.3343C21.7522 4.94053 19.8116 3 17.4179 3H12" stroke="#A4A6B0" stroke-width="1.23529" stroke-linecap="round" stroke-linejoin="round"/>
<path d="M14.0618 6.02875H9.9427C9.74197 6.02875 9.58161 5.86622 9.60358 5.66669C9.69205 4.86292 10.1021 3 12.0022 3C13.9024 3 14.3124 4.86292 14.4009 5.66669C14.4229 5.86622 14.2625 6.02875 14.0618 6.02875Z" fill="#A4A6B0" stroke="#A4A6B0" stroke-width="1.23529" stroke-linecap="round" stroke-linejoin="round"/>
</svg>
