<svg width="24" height="24" viewBox="0 0 24 24" fill="none" xmlns="http://www.w3.org/2000/svg">
<g clip-path="url(#clip0_10166_12301)">
<rect x="0.0585938" y="15.3198" width="5.13216" height="5.76576" rx="1.52039" fill="#A4A6B0"/>
<rect x="18.8086" y="15.3198" width="5.13216" height="5.76576" rx="1.52039" fill="#A4A6B0"/>
<path fill-rule="evenodd" clip-rule="evenodd" d="M3.27681 5.99944C3.47251 4.9027 4.36158 4.06242 5.46761 3.92886L7.13946 3.72697C10.3681 3.3371 13.6319 3.3371 16.8605 3.72697L18.5324 3.92886C19.6384 4.06242 20.5275 4.9027 20.7232 5.99944L21.154 8.4139L22.8423 10.6873C23.556 11.6484 23.9414 12.8138 23.9414 14.0109V16.1267C23.9414 17.2463 23.0338 18.1539 21.9142 18.1539H2.08578C0.966196 18.1539 0.0585938 17.2463 0.0585938 16.1267V14.0109C0.0585938 12.8138 0.443982 11.6484 1.15773 10.6873L2.84598 8.4139L3.27681 5.99944ZM5.37808 13.751C5.37808 14.6083 4.68308 15.3033 3.82576 15.3033C2.96843 15.3033 2.27344 14.6083 2.27344 13.751C2.27344 12.8936 2.96843 12.1986 3.82576 12.1986C4.68308 12.1986 5.37808 12.8936 5.37808 13.751ZM20.1734 15.3033C21.0307 15.3033 21.7257 14.6083 21.7257 13.751C21.7257 12.8936 21.0307 12.1986 20.1734 12.1986C19.3161 12.1986 18.6211 12.8936 18.6211 13.751C18.6211 14.6083 19.3161 15.3033 20.1734 15.3033ZM9.19922 13.7511C9.19922 13.2437 9.61054 12.8324 10.1179 12.8324H13.8879C14.3953 12.8324 14.8066 13.2437 14.8066 13.7511C14.8066 14.2585 14.3953 14.6699 13.8879 14.6699H10.1179C9.61054 14.6699 9.19922 14.2585 9.19922 13.7511ZM6.18149 4.95394C5.29372 5.08078 4.59479 5.77584 4.46303 6.66289L4.16023 8.70131C4.11228 9.02417 4.37756 9.30751 4.70287 9.28089L8.69405 8.95426C10.895 8.77415 13.1069 8.77415 15.3078 8.95426L19.299 9.28089C19.6243 9.30751 19.8896 9.02417 19.8417 8.70131L19.5389 6.66289C19.4071 5.77584 18.7082 5.08078 17.8204 4.95394L17.7355 4.94181C13.9318 4.39834 10.0701 4.39834 6.26638 4.94181L6.18149 4.95394Z" fill="#A4A6B0"/>
</g>
<defs>
<clipPath id="clip0_10166_12301">
<rect width="24" height="24" fill="white"/>
</clipPath>
</defs>
</svg>
