<svg width="24" height="24" viewBox="0 0 24 24" fill="none" xmlns="http://www.w3.org/2000/svg">
<g clip-path="url(#clip0_10166_12300)">
<path d="M1 17.8687V20.802" stroke="#A4A6B0" stroke-width="1.2" stroke-linecap="round" stroke-linejoin="round"/>
<path d="M23 17.8687V20.802" stroke="#A4A6B0" stroke-width="1.2" stroke-linecap="round" stroke-linejoin="round"/>
<path fill-rule="evenodd" clip-rule="evenodd" d="M3.20688 3.20395C3.59445 2.81637 4.12011 2.59863 4.66823 2.59863H19.3349C19.883 2.59863 20.4087 2.81637 20.7962 3.20395C21.1838 3.59152 21.4016 4.11719 21.4016 4.6653V11.2653C21.4016 11.5717 21.1719 11.8245 20.8753 11.8608C21.1704 11.8231 21.3984 11.571 21.3984 11.2657V9.06569C21.3984 8.51757 21.1807 7.99191 20.7931 7.60434C20.4055 7.21676 19.8799 6.99902 19.3318 6.99902H13.4651C12.917 6.99902 12.3913 7.21676 12.0037 7.60434L12 7.6081L11.9962 7.60434C11.6087 7.21676 11.083 6.99902 10.5349 6.99902H4.66823C4.12012 6.99902 3.59445 7.21676 3.20688 7.60434C2.8193 7.99191 2.60156 8.51758 2.60156 9.06569V4.6653C2.60156 4.11719 2.8193 3.59152 3.20688 3.20395ZM4.66823 8.19902C4.43837 8.19902 4.21793 8.29033 4.0554 8.45286C3.89287 8.6154 3.80156 8.83584 3.80156 9.06569V10.6657H11.3984V9.06569C11.3984 9.04506 11.3987 9.02447 11.3994 9.00391C11.3846 8.79664 11.2956 8.60077 11.1477 8.45286C10.9852 8.29033 10.7647 8.19902 10.5349 8.19902H4.66823ZM20.1984 10.6657H12.6016V9.06569C12.6016 9.04507 12.6013 9.02448 12.6006 9.00392C12.6154 8.79664 12.7044 8.60077 12.8523 8.45286C13.0148 8.29033 13.2352 8.19902 13.4651 8.19902H19.3318C19.5616 8.19902 19.7821 8.29033 19.9446 8.45286C20.1071 8.6154 20.1984 8.83584 20.1984 9.06569V10.6657Z" fill="#A4A6B0"/>
<path d="M2.95556 11.2681H21.0444C21.5631 11.2681 22.0605 11.4741 22.4272 11.8408C22.794 12.2076 23 12.705 23 13.2236V17.8681H1V13.2236C1 12.705 1.20603 12.2076 1.57277 11.8408C1.93951 11.4741 2.43691 11.2681 2.95556 11.2681V11.2681Z" fill="#A4A6B0" stroke="#A4A6B0" stroke-width="1.2" stroke-linecap="round" stroke-linejoin="round"/>
</g>
<defs>
<clipPath id="clip0_10166_12300">
<rect width="24" height="24" fill="white"/>
</clipPath>
</defs>
</svg>
