<svg width="28" height="28" viewBox="0 0 28 28" fill="none" xmlns="http://www.w3.org/2000/svg">
<path d="M7.28554 23.1138H20.722C22.8298 23.1138 23.9175 22.0262 23.9175 19.9424V8.05722C23.9175 5.97168 22.8298 4.88574 20.722 4.88574H7.28554C5.17773 4.88574 4.08203 5.96367 4.08203 8.05722V19.9424C4.08203 22.0342 5.17773 23.1138 7.28554 23.1138ZM7.25858 21.2006C6.43866 21.2006 5.9953 20.7803 5.9953 19.9213V10.8986C5.9953 10.0477 6.43866 9.62108 7.25858 9.62108H20.733C21.5529 9.62108 22.0043 10.0477 22.0043 10.8986V19.9213C22.0043 20.7803 21.5529 21.2006 20.733 21.2006H7.25858ZM12.125 13.0057H12.7012C13.0482 13.0057 13.1609 12.9027 13.1609 12.5557V11.9795C13.1609 11.6324 13.0482 11.5215 12.7012 11.5215H12.125C11.7779 11.5215 11.6572 11.6324 11.6572 11.9795V12.5557C11.6572 12.9027 11.7779 13.0057 12.125 13.0057ZM15.3162 13.0057H15.8923C16.2394 13.0057 16.3619 12.9027 16.3619 12.5557V11.9795C16.3619 11.6324 16.2394 11.5215 15.8923 11.5215H15.3162C14.9691 11.5215 14.8484 11.6324 14.8484 11.9795V12.5557C14.8484 12.9027 14.9691 13.0057 15.3162 13.0057ZM18.5091 13.0057H19.0853C19.4324 13.0057 19.5531 12.9027 19.5531 12.5557V11.9795C19.5531 11.6324 19.4324 11.5215 19.0853 11.5215H18.5091C18.1621 11.5215 18.0494 11.6324 18.0494 11.9795V12.5557C18.0494 12.9027 18.1621 13.0057 18.5091 13.0057ZM8.93378 16.148H9.50018C9.85702 16.148 9.96971 16.0451 9.96971 15.698V15.1219C9.96971 14.7748 9.85702 14.6719 9.50018 14.6719H8.93378C8.57694 14.6719 8.46425 14.7748 8.46425 15.1219V15.698C8.46425 16.0451 8.57694 16.148 8.93378 16.148ZM12.125 16.148H12.7012C13.0482 16.148 13.1609 16.0451 13.1609 15.698V15.1219C13.1609 14.7748 13.0482 14.6719 12.7012 14.6719H12.125C11.7779 14.6719 11.6572 14.7748 11.6572 15.1219V15.698C11.6572 16.0451 11.7779 16.148 12.125 16.148ZM15.3162 16.148H15.8923C16.2394 16.148 16.3619 16.0451 16.3619 15.698V15.1219C16.3619 14.7748 16.2394 14.6719 15.8923 14.6719H15.3162C14.9691 14.6719 14.8484 14.7748 14.8484 15.1219V15.698C14.8484 16.0451 14.9691 16.148 15.3162 16.148ZM18.5091 16.148H19.0853C19.4324 16.148 19.5531 16.0451 19.5531 15.698V15.1219C19.5531 14.7748 19.4324 14.6719 19.0853 14.6719H18.5091C18.1621 14.6719 18.0494 14.7748 18.0494 15.1219V15.698C18.0494 16.0451 18.1621 16.148 18.5091 16.148ZM8.93378 19.2984H9.50018C9.85702 19.2984 9.96971 19.1892 9.96971 18.8404V18.266C9.96971 17.9172 9.85702 17.816 9.50018 17.816H8.93378C8.57694 17.816 8.46425 17.9172 8.46425 18.266V18.8404C8.46425 19.1892 8.57694 19.2984 8.93378 19.2984ZM12.125 19.2984H12.7012C13.0482 19.2984 13.1609 19.1892 13.1609 18.8404V18.266C13.1609 17.9172 13.0482 17.816 12.7012 17.816H12.125C11.7779 17.816 11.6572 17.9172 11.6572 18.266V18.8404C11.6572 19.1892 11.7779 19.2984 12.125 19.2984ZM15.3162 19.2984H15.8923C16.2394 19.2984 16.3619 19.1892 16.3619 18.8404V18.266C16.3619 17.9172 16.2394 17.816 15.8923 17.816H15.3162C14.9691 17.816 14.8484 17.9172 14.8484 18.266V18.8404C14.8484 19.1892 14.9691 19.2984 15.3162 19.2984Z" fill="#A4A6B0"/>
</svg>
