<?xml version="1.0" encoding="UTF-8" standalone="no"?>
<!-- Created with Inkscape (http://www.inkscape.org/) -->

<svg
   xmlns:dc="http://purl.org/dc/elements/1.1/"
   xmlns:cc="http://creativecommons.org/ns#"
   xmlns:rdf="http://www.w3.org/1999/02/22-rdf-syntax-ns#"
   xmlns:svg="http://www.w3.org/2000/svg"
   xmlns="http://www.w3.org/2000/svg"
   xmlns:sodipodi="http://sodipodi.sourceforge.net/DTD/sodipodi-0.dtd"
   xmlns:inkscape="http://www.inkscape.org/namespaces/inkscape"
   width="349.44302mm"
   height="51.911129mm"
   viewBox="0 0 349.44302 51.911129"
   version="1.1"
   id="svg1050"
   inkscape:version="0.92.4 (5da689c313, 2019-01-14)"
   sodipodi:docname="andersen.svg">
  <defs
     id="defs1044" />
  <sodipodi:namedview
     id="base"
     pagecolor="#ffffff"
     bordercolor="#666666"
     borderopacity="1.0"
     inkscape:pageopacity="0.0"
     inkscape:pageshadow="2"
     inkscape:zoom="1.085083"
     inkscape:cx="658.47499"
     inkscape:cy="96.209998"
     inkscape:document-units="mm"
     inkscape:current-layer="layer1"
     showgrid="false"
     fit-margin-top="0"
     fit-margin-left="0"
     fit-margin-right="0"
     fit-margin-bottom="0"
     inkscape:window-width="1920"
     inkscape:window-height="1001"
     inkscape:window-x="-9"
     inkscape:window-y="-9"
     inkscape:window-maximized="1" />
  <metadata
     id="metadata1047">
    <rdf:RDF>
      <cc:Work
         rdf:about="">
        <dc:format>image/svg+xml</dc:format>
        <dc:type
           rdf:resource="http://purl.org/dc/dcmitype/StillImage" />
        <dc:title></dc:title>
      </cc:Work>
    </rdf:RDF>
  </metadata>
  <g
     inkscape:label="Layer 1"
     inkscape:groupmode="layer"
     id="layer1"
     transform="translate(201.43579,-122.37776)">
    <g
       transform="translate(152.44643,211.92261)"
       id="g1008">
      <polygon
         transform="matrix(0.26458333,0,0,0.26458333,-353.38222,-89.044848)"
         id="polygon819"
         points="192.26,0 0,192.26 0,0 "
         class="cls-2"
         style="fill:#f26924" />
      <polygon
         transform="matrix(0.26458333,0,0,0.26458333,-353.38222,-89.044848)"
         id="polygon821"
         points="192.26,0 384.51,192.26 384.51,0 "
         class="cls-2"
         style="fill:#f26924" />
      <polygon
         transform="matrix(0.26458333,0,0,0.26458333,-353.38222,-89.044848)"
         id="polygon823"
         points="384.51,192.26 192.26,0 192.26,192.26 "
         class="cls-1"
         style="fill:#ffffff" />
      <polygon
         transform="matrix(0.26458333,0,0,0.26458333,-353.38222,-89.044848)"
         id="polygon825"
         points="0,192.26 192.26,0 192.26,192.26 "
         class="cls-3"
         style="fill:#001722" />
      <polygon
         transform="matrix(0.26458333,0,0,0.26458333,-353.38222,-89.044848)"
         id="polygon827"
         points="434.11,178.44 427.81,154.83 417.87,154.83 428.78,191.38 438.47,191.38 445.65,170.2 452.82,191.38 462.51,191.38 473.42,154.83 463.48,154.83 457.18,178.44 449.43,154.83 441.86,154.83 "
         class="cls-3"
         style="fill:#001722" />
      <rect
         id="rect829"
         y="-48.079411"
         x="-220.95561"
         width="2.5135417"
         height="9.6705208"
         class="cls-3"
         style="fill:#001722;stroke-width:0.26458332" />
      <polygon
         transform="matrix(0.26458333,0,0,0.26458333,-353.38222,-89.044848)"
         id="polygon831"
         points="579.38,154.83 569.93,154.83 569.93,177.18 552.38,154.83 542.88,154.83 542.88,191.38 552.38,191.38 552.38,169.04 569.93,191.38 579.38,191.38 "
         class="cls-3"
         style="fill:#001722" />
      <path
         id="path833"
         d="m -183.28689,-45.084328 c -0.24871,-0.584729 -0.58737,-1.098021 -1.02129,-1.539875 -0.43392,-0.441854 -0.93663,-0.791104 -1.51342,-1.058333 -0.57679,-0.264583 -1.19327,-0.396875 -1.85473,-0.396875 h -3.72004 v 9.670521 h 3.72004 c 0.66675,0 1.28852,-0.132292 1.86532,-0.396875 0.57679,-0.264584 1.08214,-0.619125 1.51341,-1.066271 0.43127,-0.447146 0.76994,-0.960438 1.01336,-1.545167 0.24341,-0.584729 0.36512,-1.193271 0.36512,-1.828271 0,-0.640291 -0.12435,-1.254125 -0.37041,-1.838854 z m -2.44475,2.921 c -0.12435,0.328084 -0.30427,0.613834 -0.5371,0.851959 -0.23548,0.238125 -0.52388,0.428625 -0.86519,0.563562 -0.34131,0.137583 -0.73025,0.206375 -1.16681,0.206375 h -0.57679 v -5.410729 h 0.57679 c 0.42862,0 0.81227,0.06879 1.15358,0.206375 0.34131,0.137583 0.62971,0.325437 0.86519,0.563562 0.23548,0.238125 0.41539,0.526521 0.54504,0.859896 0.12965,0.333375 0.19315,0.693209 0.19315,1.076854 0,0.383646 -0.0635,0.754063 -0.18786,1.084792 z"
         class="cls-3"
         inkscape:connector-curvature="0"
         style="fill:#001722;stroke-width:0.26458332" />
      <path
         id="path835"
         d="m -164.7687,-45.251015 c -0.26458,-0.619125 -0.635,-1.161521 -1.10861,-1.621896 -0.4736,-0.460375 -1.03981,-0.822854 -1.69862,-1.084792 -0.65881,-0.261937 -1.37583,-0.391583 -2.15371,-0.391583 -0.77787,0 -1.50548,0.129646 -2.159,0.391583 -0.65352,0.261938 -1.21708,0.621771 -1.68804,1.084792 -0.47096,0.460375 -0.83608,1.002771 -1.10331,1.621896 -0.26459,0.619125 -0.39688,1.288521 -0.39688,2.005541 0,0.717021 0.13229,1.389063 0.39688,2.005542 0.26458,0.619125 0.63235,1.161521 1.10331,1.621896 0.47096,0.460375 1.03187,0.822854 1.68804,1.084792 0.65352,0.259291 1.37319,0.391583 2.159,0.391583 0.78581,0 1.49754,-0.129646 2.15371,-0.391583 0.65881,-0.261938 1.22502,-0.621771 1.69862,-1.084792 0.47361,-0.460375 0.84403,-1.002771 1.10861,-1.621896 0.26458,-0.619125 0.39687,-1.288521 0.39687,-2.005542 0,-0.71702 -0.13229,-1.386416 -0.39687,-2.005541 z m -2.45004,3.071812 c -0.14552,0.325438 -0.34396,0.608542 -0.59532,0.846667 -0.25135,0.238125 -0.54504,0.425979 -0.87312,0.555625 -0.32808,0.132292 -0.67733,0.198437 -1.0451,0.198437 -0.36778,0 -0.71703,-0.06614 -1.04511,-0.198437 -0.32808,-0.132292 -0.61912,-0.3175 -0.86519,-0.555625 -0.24606,-0.238125 -0.4445,-0.521229 -0.59002,-0.846667 -0.14552,-0.325437 -0.2196,-0.679979 -0.2196,-1.066271 0,-0.386291 0.0741,-0.740833 0.2196,-1.06627 0.14552,-0.325438 0.34132,-0.608542 0.59002,-0.846667 0.24871,-0.238125 0.53711,-0.425979 0.86519,-0.558271 0.32808,-0.132292 0.67733,-0.198437 1.04511,-0.198437 0.36777,0 0.71437,0.06614 1.0451,0.198437 0.32808,0.132292 0.61912,0.320146 0.87312,0.558271 0.254,0.238125 0.4498,0.521229 0.59532,0.846667 0.14552,0.325437 0.2196,0.679979 0.2196,1.06627 0,0.386292 -0.0741,0.740834 -0.2196,1.066271 z"
         class="cls-3"
         inkscape:connector-curvature="0"
         style="fill:#001722;stroke-width:0.26458332" />
      <polygon
         transform="matrix(0.26458333,0,0,0.26458333,-353.38222,-89.044848)"
         id="polygon837"
         points="757.42,178.44 751.12,154.83 741.19,154.83 752.09,191.38 761.79,191.38 768.95,170.2 776.13,191.38 785.82,191.38 796.74,154.83 786.8,154.83 780.49,178.44 772.74,154.83 765.18,154.83 "
         class="cls-3"
         style="fill:#001722" />
      <path
         id="path839"
         d="m -128.79331,-47.566119 c -0.47889,-0.256646 -0.97895,-0.449792 -1.50018,-0.582084 -0.52123,-0.132291 -1.0213,-0.198437 -1.50019,-0.198437 -0.51065,0 -0.97631,0.07673 -1.39171,0.232833 -0.4154,0.153458 -0.76465,0.370417 -1.05304,0.648229 -0.28575,0.277813 -0.508,0.611188 -0.66675,1.000125 -0.15875,0.388938 -0.23813,0.822854 -0.23813,1.30175 0,0.478896 0.0741,0.875771 0.2249,1.185334 0.14817,0.312208 0.3466,0.568854 0.59002,0.775229 0.24342,0.206375 0.52123,0.370416 0.83344,0.492125 0.31221,0.124354 0.62971,0.238125 0.95779,0.341312 0.27252,0.0926 0.50535,0.179917 0.6985,0.256646 0.19315,0.07673 0.3466,0.161396 0.46831,0.251354 0.12171,0.08996 0.20638,0.187854 0.25665,0.296334 0.0529,0.105833 0.0767,0.232833 0.0767,0.378354 0,0.238125 -0.10054,0.455083 -0.30163,0.640291 -0.20108,0.187855 -0.50535,0.283105 -0.9181,0.283105 -0.35984,0 -0.72231,-0.07937 -1.09009,-0.243417 -0.36777,-0.161396 -0.74083,-0.410104 -1.11654,-0.743479 l -1.07685,2.026708 c 1.04246,0.727604 2.17752,1.090083 3.39989,1.090083 0.59003,0 1.11655,-0.07937 1.58486,-0.238125 0.46831,-0.15875 0.85989,-0.381 1.18004,-0.66675 0.32015,-0.28575 0.56356,-0.629708 0.73025,-1.03452 0.16669,-0.402167 0.25135,-0.849313 0.25135,-1.34673 0,-0.735541 -0.1905,-1.3335 -0.5715,-1.791229 -0.37835,-0.457729 -0.9816,-0.822854 -1.80181,-1.098021 -0.20637,-0.06879 -0.41275,-0.132291 -0.62177,-0.193145 -0.20902,-0.06086 -0.39687,-0.129646 -0.56356,-0.211667 -0.16669,-0.07937 -0.30163,-0.177271 -0.40481,-0.288396 -0.10319,-0.111125 -0.15346,-0.251354 -0.15346,-0.423333 0,-0.248709 0.10319,-0.447146 0.30956,-0.600604 0.20638,-0.153459 0.47096,-0.232834 0.79375,-0.232834 0.25665,0 0.52123,0.05292 0.7964,0.161396 0.27252,0.105833 0.54768,0.269875 0.8202,0.492125 l 1.00013,-1.963208 z"
         class="cls-3"
         inkscape:connector-curvature="0"
         style="fill:#001722;stroke-width:0.26458332" />
      <path
         id="path841"
         d="m -101.83491,-40.702828 0.19315,-0.179916 c 0.23812,-0.22225 0.44979,-0.433917 0.635,-0.635 0.18256,-0.201084 0.34925,-0.399521 0.49477,-0.595313 l -1.42346,-1.373187 c -0.32544,0.436562 -0.74348,0.899583 -1.25677,1.386416 l -1.21709,-1.280583 c 0.33338,-0.169333 0.61384,-0.341313 0.84138,-0.505354 0.22489,-0.166688 0.4101,-0.341313 0.55033,-0.526521 0.14288,-0.182563 0.24077,-0.378354 0.30163,-0.587375 0.0609,-0.209021 0.09,-0.441854 0.09,-0.6985 0,-0.375708 -0.0741,-0.724958 -0.2249,-1.045104 -0.14817,-0.320146 -0.35983,-0.600604 -0.62706,-0.841375 -0.26988,-0.238125 -0.58738,-0.425979 -0.95515,-0.555625 -0.36777,-0.132292 -0.76994,-0.198438 -1.20385,-0.198438 -0.43392,0 -0.82286,0.06615 -1.19327,0.198438 -0.36777,0.132291 -0.68527,0.314854 -0.95515,0.550333 -0.26987,0.235479 -0.48154,0.515938 -0.635,0.838729 -0.15346,0.325438 -0.23283,0.677334 -0.23283,1.053042 0,0.563562 0.24871,1.158875 0.74348,1.783292 l 0.16668,0.193145 -0.26987,0.127 c -0.31486,0.145521 -0.58208,0.288396 -0.80169,0.428625 -0.2196,0.142875 -0.41539,0.309563 -0.59531,0.505355 -0.23813,0.256645 -0.40746,0.523875 -0.50536,0.801687 -0.0979,0.277813 -0.14816,0.595313 -0.14816,0.955146 0,0.402167 0.0767,0.772583 0.23283,1.108604 0.15346,0.338667 0.36777,0.629708 0.64029,0.878417 0.27252,0.248708 0.59796,0.441854 0.97632,0.576791 0.3757,0.137584 0.7911,0.206375 1.24354,0.206375 1.05833,0 2.16693,-0.383645 3.32316,-1.153583 l 0.84667,0.886354 h 3.130021 l -2.164291,-2.296583 z m -4.51379,0.320146 c -0.15346,0 -0.29634,-0.02381 -0.42863,-0.07144 -0.13229,-0.04763 -0.25135,-0.111125 -0.35189,-0.193146 -0.10319,-0.07938 -0.18521,-0.179917 -0.24607,-0.296334 -0.0608,-0.116416 -0.0899,-0.24077 -0.0899,-0.378354 0,-0.375708 0.30162,-0.754062 0.91281,-1.129771 l 1.52664,1.640417 c -0.45508,0.283104 -0.89429,0.423333 -1.32291,0.423333 z m 0.83344,-4.169833 c -0.50536,-0.547688 -0.75671,-0.976313 -0.75671,-1.280584 0,-0.232833 0.0767,-0.423333 0.23283,-0.576791 0.15346,-0.153459 0.3466,-0.232834 0.57679,-0.232834 0.24871,0 0.44979,0.08731 0.60854,0.264584 0.15611,0.174625 0.23813,0.383646 0.23813,0.621771 0,0.4445 -0.29898,0.846666 -0.89958,1.203854 z"
         class="cls-3"
         inkscape:connector-curvature="0"
         style="fill:#001722;stroke-width:0.26458332" />
      <path
         id="path843"
         d="m -72.863036,-45.084328 c -0.248708,-0.584729 -0.587375,-1.098021 -1.021292,-1.539875 -0.431271,-0.441854 -0.936625,-0.791104 -1.513416,-1.058333 -0.576792,-0.267229 -1.193271,-0.396875 -1.854729,-0.396875 h -3.720042 v 9.670521 h 3.720042 c 0.66675,0 1.28852,-0.132292 1.865312,-0.396875 0.576792,-0.264584 1.082146,-0.619125 1.513417,-1.066271 0.43127,-0.4445 0.769937,-0.960438 1.013354,-1.545167 0.243416,-0.584729 0.365125,-1.193271 0.365125,-1.828271 0,-0.640291 -0.124354,-1.254125 -0.370417,-1.838854 z m -2.44475,2.921 c -0.124354,0.328084 -0.304271,0.613834 -0.537104,0.851959 -0.235479,0.238125 -0.523875,0.428625 -0.865188,0.563562 -0.341312,0.137583 -0.73025,0.206375 -1.166812,0.206375 h -0.576792 v -5.410729 h 0.576792 c 0.428625,0 0.812271,0.06879 1.153583,0.206375 0.341313,0.137583 0.629709,0.325437 0.865188,0.563562 0.235479,0.238125 0.415395,0.526521 0.545041,0.859896 0.129646,0.333375 0.193146,0.693209 0.193146,1.076854 0,0.39423 -0.0635,0.754063 -0.187854,1.084792 z"
         class="cls-3"
         inkscape:connector-curvature="0"
         style="fill:#001722;stroke-width:0.26458332" />
      <path
         id="path845"
         d="m -54.344849,-45.251015 c -0.264583,-0.619125 -0.635,-1.161521 -1.108604,-1.621896 -0.473604,-0.460375 -1.039812,-0.822854 -1.698625,-1.084792 -0.658812,-0.261937 -1.375833,-0.391583 -2.153708,-0.391583 -0.777875,0 -1.505479,0.129646 -2.159,0.391583 -0.653521,0.261938 -1.217083,0.621771 -1.688042,1.084792 -0.470958,0.463021 -0.836083,1.002771 -1.103312,1.621896 -0.264584,0.619125 -0.396875,1.288521 -0.396875,2.005541 0,0.717021 0.132291,1.389063 0.396875,2.005542 0.264583,0.619125 0.632354,1.161521 1.103312,1.621896 0.470959,0.460375 1.031875,0.822854 1.688042,1.084792 0.653521,0.259291 1.373187,0.391583 2.159,0.391583 0.785812,0 1.497541,-0.129646 2.153708,-0.391583 0.658813,-0.261938 1.225021,-0.621771 1.698625,-1.084792 0.473604,-0.460375 0.844021,-1.002771 1.108604,-1.621896 0.264584,-0.619125 0.396875,-1.288521 0.396875,-2.005542 0,-0.71702 -0.132291,-1.386416 -0.396875,-2.005541 z m -2.450041,3.071812 c -0.145521,0.325438 -0.343959,0.608542 -0.595313,0.846667 -0.251354,0.238125 -0.545042,0.425979 -0.873125,0.555625 -0.328083,0.132292 -0.677333,0.198437 -1.045104,0.198437 -0.367771,0 -0.717021,-0.06614 -1.045104,-0.198437 -0.328084,-0.132292 -0.619125,-0.3175 -0.865188,-0.555625 -0.248708,-0.238125 -0.4445,-0.521229 -0.590021,-0.846667 -0.14552,-0.325437 -0.219604,-0.679979 -0.219604,-1.066271 0,-0.386291 0.07408,-0.740833 0.219604,-1.06627 0.145521,-0.325438 0.341313,-0.608542 0.590021,-0.846667 0.248709,-0.238125 0.537104,-0.425979 0.865188,-0.558271 0.328083,-0.132292 0.677333,-0.198437 1.045104,-0.198437 0.367771,0 0.714375,0.06614 1.045104,0.198437 0.328083,0.132292 0.619125,0.320146 0.873125,0.558271 0.251354,0.238125 0.449792,0.521229 0.595313,0.846667 0.14552,0.325437 0.219604,0.679979 0.219604,1.06627 0,0.386292 -0.07408,0.740834 -0.219604,1.066271 z"
         class="cls-3"
         inkscape:connector-curvature="0"
         style="fill:#001722;stroke-width:0.26458332" />
      <path
         id="path847"
         d="m -35.810787,-45.251015 c -0.264583,-0.619125 -0.634999,-1.161521 -1.108604,-1.621896 -0.473604,-0.460375 -1.039812,-0.822854 -1.70127,-1.084792 -0.658813,-0.261937 -1.375834,-0.391583 -2.153709,-0.391583 -0.777875,0 -1.505479,0.129646 -2.159,0.391583 -0.653521,0.261938 -1.217083,0.621771 -1.688041,1.084792 -0.470959,0.463021 -0.836084,1.002771 -1.103313,1.621896 -0.264583,0.619125 -0.396875,1.288521 -0.396875,2.005541 0,0.717021 0.132292,1.389063 0.396875,2.005542 0.264583,0.619125 0.632354,1.161521 1.103313,1.621896 0.470958,0.460375 1.03452,0.822854 1.688041,1.084792 0.653521,0.259291 1.373188,0.391583 2.159,0.391583 0.785813,0 1.497542,-0.129646 2.153709,-0.391583 0.658812,-0.261938 1.22502,-0.621771 1.70127,-1.084792 0.473605,-0.460375 0.844021,-1.002771 1.108604,-1.621896 0.264584,-0.619125 0.396875,-1.288521 0.396875,-2.005542 0,-0.71702 -0.132291,-1.386416 -0.396875,-2.005541 z m -2.450041,3.071812 c -0.145521,0.325438 -0.343958,0.608542 -0.595313,0.846667 -0.251354,0.238125 -0.545041,0.425979 -0.873125,0.555625 -0.328083,0.132292 -0.677333,0.198437 -1.045104,0.198437 -0.367771,0 -0.714375,-0.06614 -1.045104,-0.198437 -0.330729,-0.132292 -0.616479,-0.3175 -0.865187,-0.555625 -0.248709,-0.238125 -0.4445,-0.521229 -0.587375,-0.846667 -0.145521,-0.325437 -0.219605,-0.679979 -0.219605,-1.066271 0,-0.386291 0.07408,-0.740833 0.219605,-1.06627 0.142875,-0.325438 0.341312,-0.608542 0.587375,-0.846667 0.248708,-0.238125 0.537104,-0.425979 0.865187,-0.558271 0.328083,-0.132292 0.677333,-0.198437 1.045104,-0.198437 0.367771,0 0.714375,0.06614 1.045104,0.198437 0.33073,0.132292 0.619125,0.320146 0.873125,0.558271 0.251355,0.238125 0.449792,0.521229 0.595313,0.846667 0.145521,0.325437 0.219604,0.679979 0.219604,1.06627 0,0.386292 -0.07408,0.740834 -0.219604,1.066271 z"
         class="cls-3"
         inkscape:connector-curvature="0"
         style="fill:#001722;stroke-width:0.26458332" />
      <path
         id="path849"
         d="m -22.152995,-42.372349 c 0.693208,-0.161395 1.217083,-0.473604 1.571625,-0.931333 0.354542,-0.457729 0.531812,-1.053042 0.531812,-1.791229 0,-0.410104 -0.06614,-0.796396 -0.198437,-1.153583 -0.132292,-0.359834 -0.328083,-0.677334 -0.590021,-0.949855 -0.261937,-0.27252 -0.592667,-0.489479 -0.994833,-0.648229 -0.402167,-0.15875 -0.873125,-0.238125 -1.410229,-0.238125 h -3.910542 v 9.673167 h 2.513542 v -3.720042 l 2.39977,3.720042 h 3.130021 l -3.042708,-3.963458 z m -0.873125,-1.693333 c -0.264583,0.206375 -0.645583,0.309563 -1.140354,0.309563 h -0.473604 v -2.386542 h 0.473604 c 0.494771,0 0.875771,0.103187 1.140354,0.309562 0.264583,0.206375 0.396875,0.500063 0.396875,0.886355 0,0.386291 -0.132292,0.677333 -0.396875,0.883708 z"
         class="cls-3"
         inkscape:connector-curvature="0"
         style="fill:#001722;stroke-width:0.26458332" />
      <path
         id="path851"
         d="m -5.3387244,-47.566119 c -0.4788958,-0.256646 -0.9789583,-0.449792 -1.5001875,-0.582084 -0.5212291,-0.132291 -1.0212916,-0.198437 -1.5001874,-0.198437 -0.5132917,0 -0.9763125,0.07673 -1.3917084,0.232833 -0.4153953,0.153458 -0.7646453,0.370417 -1.0530413,0.648229 -0.288396,0.277813 -0.510646,0.611188 -0.66675,1.000125 -0.15875,0.388938 -0.238125,0.822854 -0.238125,1.30175 0,0.478896 0.07408,0.875771 0.224896,1.185334 0.148166,0.312208 0.346604,0.568854 0.59002,0.775229 0.243417,0.206375 0.52123,0.370416 0.833438,0.492125 0.3122082,0.124354 0.6297082,0.238125 0.9577915,0.341312 0.2725208,0.0926 0.5053542,0.179917 0.6985,0.256646 0.1931458,0.07673 0.3466041,0.161396 0.4683125,0.251354 0.1190625,0.08996 0.206375,0.187854 0.2566458,0.296334 0.052917,0.105833 0.076729,0.232833 0.076729,0.378354 0,0.238125 -0.1005417,0.455083 -0.301625,0.640291 -0.2010834,0.187855 -0.5053542,0.283105 -0.9181042,0.283105 -0.3598333,0 -0.7223125,-0.07937 -1.0900833,-0.243417 -0.3677703,-0.161396 -0.7408333,-0.410104 -1.1165413,-0.743479 l -1.076854,2.026708 c 1.042458,0.727604 2.1775203,1.090083 3.3998953,1.090083 0.5900208,0 1.1165416,-0.07937 1.5848541,-0.238125 0.4656667,-0.15875 0.8598959,-0.381 1.1800417,-0.66675 0.3201458,-0.28575 0.5635625,-0.629708 0.73025,-1.03452 0.1666875,-0.402167 0.2513541,-0.849313 0.2513541,-1.34673 0,-0.735541 -0.1905,-1.3335 -0.5688541,-1.791229 -0.381,-0.457729 -0.9816042,-0.822854 -1.8018125,-1.098021 -0.206375,-0.06879 -0.41275,-0.132291 -0.6217708,-0.193145 -0.2090208,-0.06086 -0.396875,-0.129646 -0.5635625,-0.211667 -0.1666875,-0.07937 -0.301625,-0.177271 -0.4048125,-0.288396 -0.1031875,-0.111125 -0.1534583,-0.251354 -0.1534583,-0.423333 0,-0.248709 0.1031875,-0.447146 0.3095625,-0.600604 0.206375,-0.153459 0.4709583,-0.232834 0.7963958,-0.232834 0.2566458,0 0.5212291,0.05292 0.79375,0.161396 0.2751666,0.105833 0.5476875,0.269875 0.8202083,0.492125 l 1.000125,-1.963208 z"
         class="cls-3"
         inkscape:connector-curvature="0"
         style="fill:#001722;stroke-width:0.26458332" />
      <path
         id="path855"
         d="m -228.58885,-88.994577 14.25311,31.855833 h -6.7945 l -2.11138,-4.743979 h -10.68916 l -2.11138,4.743979 h -6.77598 z m 2.86544,21.574125 -2.84692,-6.604 -2.88395,6.604 c 0,0 5.73087,0 5.73087,0 z"
         class="cls-3"
         inkscape:connector-curvature="0"
         style="fill:#001722;stroke-width:0.26458332" />
      <path
         id="path857"
         d="m -188.35101,-71.100807 v -17.330208 h 6.29179 v 31.932562 l -18.82246,-17.930812 v 17.330208 h -6.27327 v -31.914041 z"
         class="cls-3"
         inkscape:connector-curvature="0"
         style="fill:#001722;stroke-width:0.26458332" />
      <path
         id="path859"
         d="m -164.35331,-88.354286 c 4.90538,0 8.74184,1.947334 11.40619,4.587875 2.78871,2.801938 4.18306,6.484938 4.18306,11.049 0,4.564063 -1.39435,8.233834 -4.18306,11.009313 -3.07181,3.048 -6.87387,4.569354 -11.40619,4.569354 h -8.30791 v -31.197021 h 8.30791 v -0.02117 z m -0.0185,6.217709 h -2.032 v 18.743083 h 2.09286 c 5.62769,0 9.29481,-3.735917 9.29481,-9.371542 0,-5.585354 -3.73327,-9.371541 -9.35567,-9.371541 z"
         class="cls-3"
         inkscape:connector-curvature="0"
         style="fill:#001722;stroke-width:0.26458332" />
      <path
         id="path861"
         d="m -121.84535,-88.431015 v 6.252104 h -12.54919 v 6.291792 h 9.41123 v 6.25475 h -9.41123 v 6.291792 h 12.54919 v 6.236229 h -18.82246 v -31.326667 z"
         class="cls-3"
         inkscape:connector-curvature="0"
         style="fill:#001722;stroke-width:0.26458332" />
      <path
         id="path863"
         d="m -113.83641,-88.354286 h 10.18646 c 3.47662,0 6.286498,1.312334 8.170331,3.177646 1.899708,1.899709 3.021542,3.635375 3.021542,7.088188 v 0.812271 c 0,2.103437 -0.658813,4.085166 -1.973792,5.942541 -1.098021,1.534583 -1.963208,2.188104 -3.735917,2.883958 l 7.260167,11.310938 h -7.667625 l -8.964086,-13.808604 v 13.808604 h -6.27327 l -0.0212,-31.215542 z m 14.911916,10.45898 c 0,-1.135063 -0.41275,-2.137834 -1.238246,-3.003021 -0.81492,-0.791104 -2.36009,-1.23825 -3.8735,-1.23825 h -3.52425 v 8.614833 h 2.42093 v 0.01852 h 2.09286 c 2.286,0 4.124852,-2.013479 4.124852,-4.394729 z"
         class="cls-3"
         inkscape:connector-curvature="0"
         style="fill:#001722;stroke-width:0.26458332" />
      <path
         id="path865"
         d="m -75.069661,-63.285015 c 1.733021,0 3.645958,-1.439333 3.645958,-3.169708 0,-2.849563 -3.825875,-3.246438 -5.982229,-3.995209 -3.807354,-1.296458 -7.167562,-4.421187 -7.167562,-8.673041 0,-5.262563 4.270375,-9.503833 9.532937,-9.503833 4.799542,0 8.776229,3.558645 9.421813,8.188854 l -6.228292,1.314979 c 0,-1.7145 -1.439333,-3.153833 -3.153833,-3.153833 -1.7145,0 -3.182938,1.439333 -3.182938,3.172354 0,2.812521 3.561292,3.558645 5.728229,4.204229 3.939646,1.135062 7.413625,4.138083 7.413625,8.482541 0,5.262563 -4.725458,9.514417 -9.980083,9.514417 -4.828646,0 -9.194271,-3.540125 -9.903354,-8.188854 l 6.228292,-1.325563 c 0,1.740959 1.894416,3.161771 3.653895,3.161771 l -0.0291,-0.0291 z"
         class="cls-3"
         inkscape:connector-curvature="0"
         style="fill:#001722;stroke-width:0.26458332" />
      <path
         id="path867"
         d="m -38.141766,-88.431015 v 6.252104 h -12.549187 v 6.291792 h 9.411229 v 6.25475 h -9.411229 v 6.291792 h 12.549187 v 6.236229 h -18.822458 v -31.326667 z"
         class="cls-3"
         inkscape:connector-curvature="0"
         style="fill:#001722;stroke-width:0.26458332" />
      <path
         id="path869"
         d="m -11.244224,-71.100807 v -17.330208 h 6.2917913 v 31.932562 L -23.774891,-74.429265 v 17.330208 h -6.273271 v -31.914041 z"
         class="cls-3"
         inkscape:connector-curvature="0"
         style="fill:#001722;stroke-width:0.26458332" />
    </g>
  </g>
</svg>
