<svg width="170" height="37" viewBox="0 0 170 37" fill="none" xmlns="http://www.w3.org/2000/svg">
<mask id="mask0_18814_51560" style="mask-type:luminance" maskUnits="userSpaceOnUse" x="0" y="0" width="170" height="37">
<path d="M169.395 0.165039H0.244507V36.8349H169.395V0.165039Z" fill="white"/>
</mask>
<g mask="url(#mask0_18814_51560)">
<path d="M28.5773 14.4032C27.7024 12.0746 26.6574 9.94207 25.5151 7.85855C27.1435 5.40736 30.7403 1.95117 30.7403 1.95117C32.7818 5.75053 34.8233 9.77049 36.2815 14.1091C33.6324 14.2807 31.2021 14.3787 28.5773 14.4032Z" fill="#43B02A"/>
<path d="M15.6493 24.1839C17.3262 20.7032 17.9824 19.4285 19.7079 16.5361C24.3499 16.6097 32.8074 16.3646 36.38 16.0459C34.3628 18.9873 32.8074 21.0709 30.7173 23.5711C25.1762 24.0858 18.6872 24.2574 15.6493 24.1839Z" fill="#43B02A"/>
<path d="M22.0228 0.188477C14.4645 7.88523 8.29148 18.2293 4.40295 29.1371C5.69103 31.7599 7.12492 34.3091 8.75324 36.8339C12.6175 23.4503 20.0056 9.96875 29.1923 0.678716C26.8592 0.384572 24.4774 0.2375 22.0228 0.212989" fill="#43B02A"/>
<path d="M12.2503 0.849225C7.48688 5.97222 3.42823 12.0757 0.244507 18.743C1.07082 21.3902 2.06725 24.0375 3.23381 26.6603C7.04942 16.684 12.6392 7.34489 19.6142 0.211914C17.1596 0.28545 14.7779 0.481546 12.2746 0.824713" fill="#43B02A"/>
<path d="M93.7918 12.3219C93.7918 21.2933 100.184 24.4798 106.138 24.4798C108.787 24.4798 111.703 23.8425 114.328 22.6905V10.8757H104.267V15.0182L108.787 14.9202V19.5774H108.617C107.839 19.798 107.061 19.8961 106.405 19.8961C104.048 19.8961 100.086 18.9156 100.086 12.3464C100.086 5.7772 104.048 4.79672 106.405 4.79672C108.495 4.79672 110.61 5.40952 112.53 6.43903L114.255 2.19846C111.363 0.72774 108.957 0.188477 106.138 0.188477C100.159 0.188477 93.7918 3.37503 93.7918 12.3464" fill="#303030"/>
<path d="M130.486 8.69377C129.198 7.3211 127.375 6.63477 125.067 6.63477C120.789 6.63477 116.439 9.82132 116.439 15.9003C116.439 21.2684 119.817 24.4795 125.48 24.4795C127.618 24.4795 130.438 23.7931 132.09 22.7636L130.802 19.479C128.688 20.9007 125.869 21.3174 124.046 20.484C122.733 19.8712 122.029 18.6456 121.883 17.1014V16.8808H132.576C132.771 13.253 132.042 10.4341 130.438 8.71828M127.813 14.0864L121.907 14.0374V13.8168C122.223 11.5862 123.414 10.1645 124.945 10.1645C126.914 10.1645 127.813 12.1009 127.813 13.9148V14.1109V14.0864Z" fill="#303030"/>
<path d="M60.9611 8.81619C60.9611 3.79124 57.3885 0.555664 51.8716 0.555664H41.8587V24.0626H47.9102V17.1012H51.7744C57.267 17.1012 60.9611 13.7676 60.9611 8.81619ZM47.9102 12.6155V5.04135H50.7537C53.2083 5.04135 54.6665 6.46305 54.6665 8.81619C54.6665 11.1693 53.1111 12.6155 50.6322 12.6155H47.9345H47.9102Z" fill="#303030"/>
<path d="M68.5581 0.555664H62.944V24.0626H68.5581V0.555664Z" fill="#303030"/>
<path d="M83.5288 7.0498L79.9562 17.0997L76.3836 7.0498H70.4779C70.7209 7.71163 76.4565 22.9336 77.137 24.9435C76.6752 26.3162 75.0469 28.2281 72.6652 29.4537L74.2935 33.8904C78.7167 31.4147 80.5152 29.6743 82.4594 24.8945C84.3794 20.1392 89.1185 7.0498 89.1185 7.0498" fill="#303030"/>
<path d="M153.55 10.8998C154.789 10.8263 155.664 11.3901 155.664 12.9589V24.0873H161.278V12.3215C161.278 8.81633 159.139 6.63477 156.32 6.63477C154.473 6.63477 152.553 7.54171 150.585 9.06145L150.39 9.20852L150.269 8.98791C149.442 7.44366 147.717 6.63477 145.991 6.63477C144.266 6.63477 142.735 7.41915 140.985 8.79182L140.669 9.03694V6.63477H135.055V24.0873H140.669V12.3461L140.742 12.297C141.471 11.5126 142.394 10.9979 143.221 10.9489C144.485 10.8753 145.384 11.4391 145.384 13.0079V24.1363H150.998V13.4736C150.998 13.1795 150.998 12.7873 150.925 12.4686C151.63 11.7087 152.772 10.9979 153.574 10.9734" fill="#303030"/>
<path d="M166.451 7.00195C164.798 7.00195 163.51 8.35011 163.51 9.9679C163.51 11.6102 164.798 12.9338 166.451 12.9338C168.103 12.9338 169.391 11.5857 169.391 9.9679C169.391 8.35011 168.103 7.00195 166.451 7.00195ZM169.075 9.9679C169.075 11.4386 167.933 12.6397 166.426 12.6397C164.919 12.6397 163.802 11.4631 163.802 9.99241C163.802 8.5217 164.944 7.32061 166.451 7.32061C167.957 7.32061 169.075 8.49718 169.075 9.9679Z" fill="#303030"/>
<path d="M167.113 10.2655C167.526 10.143 167.817 9.82433 167.817 9.33409C167.817 9.03995 167.72 8.81934 167.574 8.67227C167.356 8.45166 167.04 8.3291 166.651 8.3291H165.266V11.4421H165.849V10.3636H166.481L167.234 11.4421H167.939M166.602 9.84884H165.849V8.86836H166.602C166.991 8.86836 167.21 9.03995 167.21 9.3586C167.21 9.67726 166.991 9.84884 166.602 9.84884Z" fill="#303030"/>
</g>
</svg>
