<svg width="600" height="146" viewBox="0 0 600 146" fill="none" xmlns="http://www.w3.org/2000/svg">
<path d="M590.631 94.7C592.031 94.7 593.231 94.6 593.231 93C593.231 91.7 592.031 91.4 590.931 91.4H588.731V94.7H590.631ZM588.731 100.7H587.131V90.1H591.131C593.631 90.1 594.831 91 594.831 93.1C594.831 95 593.631 95.8 592.031 96L595.031 100.7H593.231L590.431 96.1H588.531V100.7H588.731ZM590.631 103C594.831 103 598.031 99.7 598.031 95.3C598.031 91 594.731 87.7 590.631 87.7C586.431 87.7 583.131 91 583.131 95.3C583.131 99.8 586.431 103 590.631 103ZM581.331 95.3C581.331 90 585.631 86.1 590.631 86.1C595.631 86.1 599.931 90 599.931 95.3C599.931 100.6 595.631 104.5 590.631 104.5C585.631 104.6 581.331 100.7 581.331 95.3Z" fill="#00539F"/>
<path d="M298.131 22.2V0.299988H322.831V22.1L298.131 22.2ZM322.831 104.4V30.4H298.131V104.4H322.831ZM181.931 104.4H207.931V0.999985H181.931V104.4Z" fill="#00539F"/>
<path d="M180.931 104.4L126.531 1H102.831C102.831 1 60.931 91.9 55.831 105.4C50.731 118.9 39.631 124.4 28.831 116.9C22.831 112.8 22.431 98.6 26.831 94.2C32.731 88.3 36.631 86.1 49.131 84.8C55.531 84.1 131.631 84.1 131.631 84.1V63.8H47.431C16.031 64.8 1.83098 84.1 0.130983 104.4C-1.36902 121.9 9.93099 145 38.331 145.3C64.331 145.6 72.431 128.4 75.831 122.3C79.131 116.3 114.331 33.4 114.331 33.4L149.431 104.4H180.931Z" fill="#00539F"/>
<path d="M395.531 64.9C395.531 54.8 388.731 41.8 372.531 41.6C357.031 41.3 347.831 52.4 347.831 65.9C347.831 76 354.631 88.5 372.131 88.2C389.731 87.9 395.531 73 395.531 64.9ZM418.131 104.4H393.131V92.2C393.131 92.2 405.931 68.9 399.231 83.4C392.431 97.9 383.731 105.5 362.731 105.9C343.431 106.2 322.731 91.5 322.531 65.5C322.231 38 346.231 25.6 364.531 25.6C370.931 25.6 386.431 29 393.131 37.5V0H418.131V104.4Z" fill="#00539F"/>
<path d="M294.831 49C294.831 49 278.231 49.3 270.831 49C270.131 41.2 262.431 38.2 251.531 38.2C240.731 38.2 232.231 41.7 233.231 48.7C233.831 52.8 238.531 56.5 261.631 56C287.331 55.4 298.131 66.2 298.131 79.1C298.131 95 285.331 107.4 250.831 107.8C217.131 108.2 207.931 94.3 205.231 81.4C205.231 81.4 224.131 81.1 231.231 81.1C231.531 89.7 244.031 92.9 252.131 92.9C260.231 92.9 274.131 91.2 274.131 83.1C274.131 74 257.531 74.7 249.131 74.3C240.731 74 208.931 75 208.931 54C208.931 32.4 226.531 25.6 253.831 25.3C283.331 25 293.431 36.8 294.831 49ZM443.631 54.7C444.431 44.7 452.031 37.3 466.431 37.1C481.331 36.9 485.831 47.2 486.731 54.7H443.631ZM512.731 68.7C512.931 54.8 505.931 22.3 466.431 22.3C436.231 22.3 417.031 39.3 417.231 63.6C417.531 87.9 433.331 105.3 466.331 105.2C499.031 105.1 578.131 105.2 578.131 105.2L578.331 86.5L465.831 86.4C452.931 86.6 443.431 77.7 443.231 68.7H512.731Z" fill="#00539F"/>
</svg>
