<svg width="433" height="181" viewBox="0 0 433 181" fill="none" xmlns="http://www.w3.org/2000/svg">
<g clip-path="url(#clip0_53_38)">
<path d="M26.7 123.1L20.4 142.9H0L26.7 65.4H52.8L80 142.9H58.6L51.7 123.1H26.7ZM48.8 110.1L43.5 93.6C41.8 89 40.4 83.2 39.2 78.7H39L35 93.6L29.8 110.1H48.8ZM86.2 104.8C86.2 97.8 86 91.8 85.6 86.8H102.7L103.5 94.4H104C106.7 90.9 113.2 85.6 123.7 85.6C136.7 85.6 146.4 93.2 146.4 109.9V143.2H126.7V111.9C126.7 104.7 123.8 99.7 116.8 99.7C111.5 99.7 108.1 103.1 106.9 106.3C106.3 107.4 106.1 109 106.1 110.6V143.1H86.3L86.2 104.8ZM160.8 59H180.5V143.1H160.8V59ZM195.2 143.1V86.8H214.9V143.1H195.2ZM229.4 104.8C229.4 97.8 229.2 91.8 228.8 86.8H245.9L246.7 94.4H247.2C249.9 90.9 256.4 85.6 266.9 85.6C279.9 85.6 289.6 93.2 289.6 109.9V143.2H270.1V111.9C270.1 104.7 267.2 99.7 260.2 99.7C254.9 99.7 251.5 103.1 250.3 106.3C249.7 107.4 249.5 109 249.5 110.6V143.1H229.8L229.4 104.8Z" fill="#005B94"/>
<path d="M204.8 80.2C209.604 80.2 213.5 76.3049 213.5 71.5C213.5 66.6951 209.604 62.8 204.8 62.8C199.995 62.8 196.1 66.6951 196.1 71.5C196.1 76.3049 199.995 80.2 204.8 80.2Z" fill="#005394"/>
<path d="M6.99981 149.8L13.3998 175.4L20.2998 149.8H23.6998L30.6998 175.4L37.0998 149.8H39.6998L31.8998 179.1H28.9998L22.3998 152.9L15.1998 179.1H12.0998L4.2998 149.8H6.99981ZM46.6998 149.8V153.9H44.2998V149.8H46.6998ZM46.6998 158V179.1H44.2998V158H46.6998ZM54.2998 158V161.7C54.7998 160.5 55.4998 159.4 56.6998 158.6C57.8998 157.8 59.0998 157.4 60.6998 157.4C62.1998 157.4 63.3998 157.6 64.1998 158C65.2998 158.5 65.8998 158.8 66.4998 159.7C67.0998 160.3 67.5998 161.4 67.6998 162.1C67.8998 163.2 68.1998 164.2 68.1998 165.5V179.1H65.7998V165.8C65.7998 165 65.7998 164.1 65.5998 163.4C65.3998 162.6 65.0998 162 64.7998 161.3C64.2998 160.7 63.6998 160.2 63.0998 159.9C62.4998 159.4 61.6998 159.4 60.6998 159.4C59.6998 159.4 58.8998 159.6 57.9998 160C57.0998 160.5 56.5998 160.8 55.8998 161.4C55.2998 162 54.7998 162.8 54.6998 163.7C54.4998 164.6 54.1998 165.5 54.1998 166.6V179H51.7998V157.9C51.6998 158 54.2998 158 54.2998 158ZM89.4998 179.2V175.2C89.2998 175.8 88.8998 176.4 88.2998 177C87.6998 177.6 87.1998 178.1 86.4998 178.4C85.8998 178.9 85.0998 179 84.3998 179.2C83.6998 179.4 82.9998 179.7 82.0998 179.7C80.3998 179.7 79.1998 179.5 77.9998 178.9C76.7998 178.3 75.8998 177.5 75.0998 176.5C74.2998 175.4 73.8998 174.2 73.3998 173C72.8998 171.6 72.7998 170.3 72.7998 168.7C72.7998 167.3 72.9998 165.8 73.3998 164.4C73.7998 163 74.4998 162 75.0998 160.9C75.8998 159.8 76.7998 159.1 77.9998 158.5C79.1998 157.9 80.3998 157.7 82.0998 157.7C82.8998 157.7 83.4998 157.7 84.3998 157.9C85.2998 158.1 85.7998 158.4 86.4998 158.7C87.0998 159.2 87.6998 159.5 88.1998 160.1C88.6998 160.7 88.9998 161.3 89.2998 162.2V150H91.5998V179.3L89.4998 179.2ZM75.7998 171.9C75.9998 173 76.3998 174 76.9998 174.8C77.5998 175.6 78.1998 176.2 79.0998 176.9C79.9998 177.7 80.8998 177.7 82.1998 177.7C83.4998 177.7 84.5998 177.5 85.5998 176.9C86.4998 176.3 87.2998 175.7 87.8998 174.8C88.4998 174 88.9998 173 89.0998 171.9C89.2998 170.8 89.5998 169.8 89.5998 168.5C89.5998 167.4 89.3998 166.2 89.0998 165.1C88.8998 164 88.4998 163 87.8998 162.2C87.2998 161.4 86.6998 160.8 85.5998 160.1C84.7998 159.5 83.4998 159.3 82.1998 159.3C80.8998 159.3 79.8998 159.5 79.0998 160.1C78.2998 160.7 77.6998 161.3 76.9998 162.2C76.3998 163 75.8998 164 75.7998 165.1C75.5998 166.2 75.2998 167.2 75.2998 168.5C75.4998 169.6 75.4998 170.7 75.7998 171.9ZM110 158.3C111.2 158.9 112.3 159.7 113.1 160.7C113.9 161.8 114.5 163 114.9 164.2C115.4 165.6 115.5 167.1 115.5 168.5C115.5 169.9 115.3 171.4 114.9 172.8C114.4 174.2 113.8 175.2 113.1 176.3C112.3 177.4 111.3 178.1 110 178.7C108.8 179.3 107.3 179.5 105.9 179.5C104.5 179.5 103 179.3 101.8 178.7C100.6 178.1 99.4998 177.3 98.6998 176.3C97.8998 175.2 97.2998 174 96.8998 172.8C96.3998 171.4 96.2998 169.9 96.2998 168.5C96.2998 167.1 96.4998 165.6 96.8998 164.2C97.2998 162.8 97.9998 161.8 98.6998 160.7C99.4998 159.6 100.5 158.9 101.8 158.3C103 157.7 104.5 157.5 105.9 157.5C107.2 157.5 108.7 157.7 110 158.3ZM102.5 160.3C101.7 160.9 100.8 161.5 100.2 162.4C99.5998 163.3 99.0998 164.2 98.7998 165.3C98.5998 166.4 98.2998 167.6 98.2998 168.7C98.2998 169.8 98.4998 171 98.7998 172.1C99.0998 173.2 99.5998 174.2 100.2 175C100.8 175.8 101.6 176.4 102.5 177.1C103.4 177.8 104.3 177.9 105.6 177.9C106.8 177.9 107.9 177.7 108.7 177.1C109.5 176.5 110.4 175.9 111 175C111.6 174.2 112.1 173.2 112.4 172.1C112.6 171 112.9 169.8 112.9 168.7C112.9 167.6 112.7 166.4 112.4 165.3C112.2 164.2 111.6 163.2 111 162.4C110.4 161.6 109.6 161 108.7 160.3C107.9 159.7 106.9 159.5 105.6 159.5C104.6 159.5 103.6 159.7 102.5 160.3ZM120.3 158L125.5 176.2L130.5 158H133.4L138.4 176.2L143.6 158H146.3L139.7 179.1H137L132 161.3L127 179.1H124.3L117.7 158H120.3ZM161.4 162.3C161.2 161.7 160.8 161.2 160.2 160.9C159.7 160.4 159.1 160.3 158.5 160.1C157.9 159.9 157.3 159.9 156.4 159.9C155.8 159.9 155.3 159.9 154.7 160.1C154.1 160.3 153.6 160.6 153 160.7C152.5 160.9 152.2 161.3 151.8 161.8C151.6 162.3 151.3 162.9 151.3 163.5C151.3 164.1 151.5 164.6 151.8 164.9C152 165.4 152.4 165.7 152.9 166C153.4 166.2 153.7 166.5 154.3 166.6C154.8 166.8 155.4 167.1 155.7 167.1L159.1 167.9C159.7 168.1 160.5 168.1 161.2 168.5C161.8 168.7 162.4 169.1 163 169.6C163.6 170.1 164.1 170.7 164.2 171.3C164.7 171.9 164.8 172.7 164.8 173.7C164.8 174.9 164.6 175.8 164 176.6C163.5 177.4 162.8 178 162.2 178.7C161.4 179.2 160.5 179.5 159.5 179.8C158.4 180 157.7 180.3 156.6 180.3C154.2 180.3 152.3 179.7 150.8 178.5C149.4 177.3 148.5 175.4 148.4 172.9H150.8C151 174.6 151.4 176 152.6 176.9C153.7 177.7 155 178.1 156.7 178.1C157.3 178.1 157.9 178.1 158.5 177.9L160.3 177.3C160.9 176.8 161.4 176.5 161.7 176.1C162.2 175.6 162.3 175 162.3 174.3C162.3 173.7 162.1 173.1 161.8 172.6C161.6 172.1 161.2 171.8 160.7 171.5C160.2 171.2 159.9 170.9 159.3 170.9C158.7 170.7 158.2 170.4 157.6 170.4L154.2 169.6C153.4 169.4 152.5 169.1 151.9 168.8C151.3 168.6 150.7 168.2 150.1 167.7C149.5 167.2 149.3 166.6 148.9 166C148.7 165.4 148.4 164.6 148.4 163.7C148.4 162.6 148.6 161.6 149 161C149.5 160.2 150.1 159.6 150.8 159.2C151.5 158.8 152.5 158.4 153.2 158.1C154 157.9 155 157.6 155.9 157.6C157 157.6 158 157.8 158.8 158.1C159.7 158.3 160.5 158.7 161.1 159.3C161.7 159.9 162.3 160.5 162.8 161.4C163.3 162.2 163.4 163.2 163.4 164.3H161.4C161.8 163.5 161.7 162.6 161.4 162.3ZM198.1 149.8C202.4 150 205.7 151.2 207.9 153.5C210.2 155.9 211.3 159.4 211.3 164.5C211.3 169.6 210.2 173 207.9 175.5C205.6 177.9 202.6 179.2 198.1 179.2H188.2V149.9H198.1V149.8ZM196.9 176.6C199 176.6 200.6 176.4 202.2 176C203.6 175.5 204.9 174.8 205.9 173.9C207 172.8 207.6 171.6 208 170.2C208.5 168.5 208.6 166.7 208.6 164.6C208.6 162.3 208.4 160.5 208 159C207.5 157.3 206.8 156.1 205.9 155.3C204.8 154.2 203.8 153.6 202.2 153.2C200.8 152.7 198.8 152.6 196.9 152.6H191.1V177.2H196.9V176.6ZM228.3 158.3C229.5 158.9 230.6 159.7 231.4 160.7C232.2 161.8 232.8 163 233.2 164.2C233.7 165.6 233.8 167.1 233.8 168.5C233.8 169.9 233.6 171.4 233.2 172.8C232.7 174.2 232.1 175.2 231.4 176.3C230.6 177.4 229.6 178.1 228.3 178.7C227.1 179.3 225.6 179.5 224.2 179.5C222.8 179.5 221.3 179.3 220.1 178.7C218.9 178.1 217.8 177.3 217 176.3C216.2 175.2 215.6 174 215.2 172.8C214.7 171.4 214.6 169.9 214.6 168.5C214.6 167.1 214.8 165.6 215.2 164.2C215.6 162.8 216.3 161.8 217 160.7C217.8 159.6 218.8 158.9 220.1 158.3C221.4 157.7 222.8 157.5 224.2 157.5C225.7 157.4 227.3 157.7 228.3 158.3ZM221.2 160.3C220.4 160.9 219.5 161.5 218.9 162.4C218.3 163.2 217.8 164.2 217.5 165.3C217.3 166.4 217 167.6 217 168.7C217 169.8 217.2 171 217.5 172.1C217.8 173.2 218.3 174.2 218.9 175C219.5 175.8 220.3 176.4 221.2 177.1C222 177.7 223 177.9 224.3 177.9C225.6 177.9 226.6 177.7 227.4 177.1C228.2 176.5 229.1 175.9 229.7 175C230.3 174.1 230.8 173.2 231.1 172.1C231.3 171 231.6 169.8 231.6 168.7C231.6 167.6 231.4 166.4 231.1 165.3C230.8 164.2 230.3 163.2 229.7 162.4C229.1 161.6 228.3 161 227.4 160.3C226.5 159.6 225.6 159.5 224.3 159.5C223.1 159.5 222.2 159.7 221.2 160.3ZM251.1 158.3C252.3 158.9 253.4 159.7 254.2 160.7C255 161.8 255.6 163 256 164.2C256.5 165.6 256.6 167.1 256.6 168.5C256.6 169.9 256.4 171.4 256 172.8C255.5 174.2 254.9 175.2 254.2 176.3C253.4 177.4 252.4 178.1 251.1 178.7C249.9 179.3 248.4 179.5 247 179.5C245.6 179.5 244.1 179.3 242.9 178.7C241.7 178.1 240.6 177.3 239.8 176.3C239 175.2 238.4 174 238 172.8C237.5 171.4 237.4 169.9 237.4 168.5C237.4 167.1 237.6 165.6 238 164.2C238.4 162.8 239.1 161.8 239.8 160.7C240.6 159.6 241.6 158.9 242.9 158.3C244.1 157.7 245.6 157.5 247 157.5C248.5 157.4 249.8 157.7 251.1 158.3ZM243.7 160.3C242.9 160.9 242 161.5 241.4 162.4C240.8 163.3 240.3 164.2 240 165.3C239.8 166.4 239.5 167.6 239.5 168.7C239.5 169.8 239.7 171 240 172.1C240.3 173.2 240.8 174.2 241.4 175C242 175.8 242.8 176.4 243.7 177.1C244.6 177.8 245.5 177.9 246.8 177.9C248.1 177.9 249.1 177.7 249.9 177.1C250.7 176.5 251.6 175.9 252.2 175C252.8 174.2 253.3 173.2 253.6 172.1C253.8 171 254.1 169.8 254.1 168.7C254.1 167.6 253.9 166.4 253.6 165.3C253.3 164.2 252.8 163.2 252.2 162.4C251.6 161.6 250.8 161 249.9 160.3C249.1 159.7 248.1 159.5 246.8 159.5C245.7 159.5 244.7 159.7 243.7 160.3ZM263.1 158V163C263.7 161.3 264.8 159.9 266 159C267.2 158.2 268.9 157.6 270.7 157.8V160.5C269.5 160.5 268.4 160.5 267.6 161C266.8 161.5 265.9 161.8 265.2 162.7C264.5 163.4 263.9 164.2 263.5 165.1C263 166.2 262.9 167.2 262.9 168.2V179.6H260.5V158.1H263.1V158ZM285.7 162.3C285.5 161.7 285.1 161.2 284.5 160.9C284 160.4 283.4 160.3 282.8 160.1C282.2 159.9 281.6 159.9 280.7 159.9C280.1 159.9 279.6 159.9 279 160.1C278.4 160.3 277.9 160.6 277.3 160.7C276.8 160.9 276.5 161.3 276.1 161.8C275.9 162.3 275.6 162.9 275.6 163.5C275.6 164.1 275.8 164.6 276.1 164.9C276.3 165.4 276.7 165.7 277.2 166C277.7 166.2 278 166.5 278.6 166.6C279.1 166.8 279.7 167.1 280 167.1L283.4 167.9C284 168.1 284.8 168.1 285.5 168.5C286.1 168.7 286.7 169.1 287.3 169.6C287.9 170.1 288.4 170.7 288.5 171.3C289 171.9 289.1 172.7 289.1 173.7C289.1 174.9 288.9 175.8 288.3 176.6C287.8 177.4 287.1 178 286.5 178.7C285.7 179.2 284.8 179.5 283.8 179.8C282.7 180.1 282 180.3 280.9 180.3C278.5 180.3 276.6 179.7 275.1 178.5C273.7 177.3 272.8 175.4 272.7 172.9H275.1C275.3 174.6 275.7 176 276.9 176.9C278 177.7 279.3 178.1 281 178.1C281.6 178.1 282.2 178.1 282.8 177.9L284.6 177.3C285.2 176.8 285.7 176.5 286 176.1C286.5 175.6 286.6 175 286.6 174.3C286.6 173.7 286.4 173.1 286.1 172.6C285.8 172.1 285.5 171.8 285 171.5C284.5 171.3 284.2 170.9 283.6 170.9C283 170.7 282.5 170.4 281.9 170.4L278.5 169.6C277.7 169.4 276.8 169.1 276.2 168.8C275.6 168.6 275 168.2 274.4 167.7C273.8 167.2 273.6 166.6 273.2 166C273 165.4 272.7 164.6 272.7 163.7C272.7 162.6 272.9 161.6 273.3 161C273.8 160.2 274.4 159.6 275.1 159.2C275.9 158.7 276.8 158.4 277.5 158.1C278.3 157.9 279.3 157.6 280.2 157.6C281.3 157.6 282.3 157.8 283.1 158.1C284 158.3 284.8 158.7 285.4 159.3C286 159.9 286.6 160.5 287.1 161.4C287.6 162.2 287.7 163.2 287.7 164.3H285.3C286 163.5 286 162.6 285.7 162.3Z" fill="#005B94"/>
<path d="M175.7 170.3C177.191 170.3 178.4 169.091 178.4 167.6C178.4 166.109 177.191 164.9 175.7 164.9C174.209 164.9 173 166.109 173 167.6C173 169.091 174.209 170.3 175.7 170.3Z" fill="#005B94"/>
<path d="M69.1002 46.2C69.1002 46.2 174 19.4 292.9 59C292.9 59 205.6 18.1 50.2002 40.5L90.3002 31.2L69.9002 24.6L70.4002 0L55.2002 20L33.1002 12.8L44.8002 34.3L28.7002 54.1L53.6002 47.7L68.5002 70L69.1002 46.2Z" fill="#D1B750"/>
</g>
<defs>
<clipPath id="clip0_53_38">
<rect width="293" height="181" fill="white"/>
</clipPath>
</defs>
</svg>
