<svg width="601" height="201" viewBox="0 0 601 201" fill="none" xmlns="http://www.w3.org/2000/svg">
<path d="M173.9 138.8L174 139.6L173.2 139.7C160.9 157.4 144.5 181 130.9 200.2L170.7 200.5L188.8 194.7V194.8L212.6 187.2L189.6 115.9C187.1 120 181.3 128.2 173.9 138.8Z" fill="#C62032"/>
<path d="M164.7 38.2L173.5 134.1L189.7 115.6L164.7 38.2Z" fill="#C62032"/>
<path d="M152.5 0L16.4004 43.8L23.4004 65.4L58.8004 54L88.4004 117.1L78.9004 47.6L107.6 38.2L140.3 100.4L127.8 31.8L159.4 21.6L152.5 0Z" fill="#C62032"/>
<path d="M116.8 158L84.5 168.3C76.9 179.3 69.1 190.3 62.5 199.7L80.2 199.8L134.8 137.5L122.3 113.8C119.7 117.4 116.5 122.2 112.6 127.6L116.8 158Z" fill="#C62032"/>
<path d="M40.3 199.6H45.8L79.7 161L23.5 65.7L0 73.3L13.4 115.2L41.1 120.5L47.7 140.7L27.3 159.8L40.3 199.6Z" fill="#C62032"/>
<path d="M166.6 142L141.3 150.1L136.9 141.7C124.4 159.7 108.8 182 96.2002 200L115.6 200.1L166.6 142Z" fill="#C62032"/>
<path d="M112.1 124L121.7 113L106.7 84.5L112.1 124Z" fill="#C62032"/>
<path d="M231.3 54.3999L238.8 82.9999C240.5 89.2999 241.9 95.1999 242.9 101H243.3C244.6 95.2999 246.4 89.1999 248.3 83.1999L257.5 54.4999H266.2L275 82.6999C277.1 89.3999 278.8 95.3999 280 101.1H280.4C281.3 95.3999 282.9 89.4999 284.7 82.8999L292.7 54.5999H302.8L284.7 110.8H275.4L266.7 83.8999C264.8 77.5999 263.1 71.9999 261.7 65.3999H261.4C260 72.0999 258.3 77.8999 256.2 83.9999L247.1 110.8H237.8L220.7 54.3999H231.3Z" fill="#C62032"/>
<path d="M317.501 84.5C317.801 98.3 326.601 104 336.801 104C344.201 104 348.601 102.7 352.401 101L354.101 108.4C350.501 110.1 344.301 111.9 335.301 111.9C318.001 111.9 307.601 100.5 307.601 83.5C307.601 66.6 317.601 53.1 334.001 53.1C352.401 53.1 357.301 69.3 357.301 79.6C357.301 81.7 357.001 83.4 356.901 84.4H317.501V84.5ZM347.501 77.2C347.601 70.7 344.801 60.5 333.301 60.5C323.001 60.5 318.401 70.1 317.501 77.2H347.501Z" fill="#C62032"/>
<path d="M368.7 100.3C371.7 102.2 377.1 104.3 382.1 104.3C389.6 104.3 393.1 100.5 393.1 95.9C393.1 91 390.1 88.4 382.6 85.6C372.5 82 367.7 76.4 367.7 69.7C367.7 60.6 375.1 53.1 387.1 53.1C392.8 53.1 397.8 54.8 400.9 56.6L398.3 64.1C396.1 62.7 392 60.9 386.8 60.9C380.7 60.9 377.4 64.4 377.4 68.5C377.4 73.2 380.8 75.2 388.1 78.1C397.9 81.9 402.8 86.8 402.8 95C402.8 104.8 395.2 111.8 381.7 111.8C375.5 111.8 369.8 110.2 365.9 107.9L368.7 100.3Z" fill="#C62032"/>
<path d="M428.4 38.2V54.4H443V62.2H428.4V92.5999C428.4 99.5999 430.3 103.6 436 103.6C438.7 103.6 440.7 103.2 441.9 103L442.4 110.6C440.5 111.4 437.2 112 433.3 112C428.5 112 424.6 110.4 422.3 107.7C419.3 104.7 418.3 99.6999 418.3 93.0999V62.3H409.5V54.5H418.3V40.9L428.4 38.2Z" fill="#C62032"/>
<path d="M459.7 84.5C460 98.3 468.8 104 479 104C486.4 104 490.8 102.7 494.6 101L496.3 108.4C492.7 110.1 486.5 111.9 477.5 111.9C460.2 111.9 449.8 100.5 449.8 83.5C449.8 66.6 459.8 53.1 476.2 53.1C494.6 53.1 499.5 69.3 499.5 79.6C499.5 81.7 499.2 83.4 499.1 84.4H459.7V84.5ZM489.7 77.2C489.8 70.7 487 60.5 475.5 60.5C465.2 60.5 460.6 70.1 459.9 77.2H489.7Z" fill="#C62032"/>
<path d="M512.2 72C512.2 65.4 512.1 59.7 511.7 54.4H520.6L521 65.4H521.5C524.1 57.9 530.3 53.1 537.1 53.1C538.3 53.1 539 53.2 540.1 53.5V63.2C539.1 62.9 538 62.8 536.6 62.8C529.4 62.8 524.3 68.2 522.9 76C522.6 77.4 522.4 79 522.4 80.8V110.8H512.3V72H512.2Z" fill="#C62032"/>
<path d="M550.7 69.7C550.7 63.9 550.6 59.1 550.2 54.4H559.3L559.9 63.7H560.2C563 58.4 569.5 53.1 578.8 53.1C586.6 53.1 598.7 57.8 598.7 77V110.6H588.5V78.1C588.5 69 585.1 61.4 575.4 61.4C568.7 61.4 563.4 66.2 561.7 71.9C561.2 73.2 561.1 74.9 561.1 76.7V110.6H550.9V69.6H550.7V69.7Z" fill="#C62032"/>
<path d="M233.1 131L236.6 144.3C237.4 147.3 238 150 238.5 152.7H238.6C239.2 150 240 147.3 240.9 144.4L245.2 131H249.2L253.3 144.2C254.3 147.3 255 150.1 255.6 152.7H255.7C256.1 150 256.9 147.3 257.8 144.2L261.5 131H266.3L257.8 157.4H253.4L249.4 144.9C248.5 141.9 247.7 139.3 247.1 136.2H247C246.4 139.3 245.6 142 244.5 144.9L240.2 157.4H236L228.1 131H233.1Z" fill="#585B5C"/>
<path d="M276.599 123.6C276.599 125.3 275.399 126.6 273.499 126.6C271.799 126.6 270.699 125.3 270.699 123.6C270.699 121.9 271.999 120.6 273.699 120.6C275.599 120.6 276.599 121.9 276.599 123.6ZM271.299 157.3V130.9H276.099V157.3H271.299Z" fill="#585B5C"/>
<path d="M284.1 138.1C284.1 135.4 284.1 133.2 283.8 131H288.1L288.4 135.4H288.5C289.8 132.9 292.9 130.5 297.2 130.5C300.8 130.5 306.5 132.7 306.5 141.8V157.6H301.7V142.5C301.7 138.2 300.1 134.7 295.6 134.7C292.5 134.7 290 136.9 289.1 139.6C288.8 140.2 288.7 141 288.7 141.8V157.6H284V138.2H284.1V138.1Z" fill="#585B5C"/>
<path d="M336.999 118.7V150.5C336.999 152.8 336.999 155.5 337.299 157.4H332.999L332.699 152.9H332.599C331.199 155.9 327.899 158.1 323.699 158.1C317.399 158.1 312.399 152.7 312.399 144.8C312.399 136 317.799 130.7 324.199 130.7C328.199 130.7 330.899 132.6 332.099 134.7H332.199V118.8H336.999V118.7ZM332.199 141.7C332.199 141.1 332.199 140.3 331.899 139.6C331.299 136.5 328.499 134 324.999 134C320.099 134 317.099 138.4 317.099 144.2C317.099 149.5 319.699 153.9 324.899 153.9C328.099 153.9 331.099 151.8 331.899 148.2C331.999 147.6 332.199 146.9 332.199 146.1V141.7Z" fill="#585B5C"/>
<path d="M368.8 144C368.8 153.7 362.1 158 355.7 158C348.6 158 343 152.8 343 144.4C343 135.6 348.8 130.4 356.1 130.4C363.6 130.4 368.8 135.9 368.8 144ZM347.8 144.3C347.8 150.1 351.2 154.4 355.8 154.4C360.3 154.4 363.8 150.1 363.8 144.2C363.8 139.8 361.6 134.1 355.9 134.1C350.3 134.1 347.8 139.2 347.8 144.3Z" fill="#585B5C"/>
<path d="M376.299 131L379.799 144.3C380.599 147.3 381.199 150 381.699 152.7H381.799C382.399 150 383.199 147.3 384.099 144.4L388.399 131H392.399L396.499 144.2C397.499 147.3 398.199 150.1 398.799 152.7H398.899C399.299 150 400.099 147.3 400.999 144.2L404.799 131H409.599L401.099 157.4H396.699L392.699 144.9C391.799 141.9 390.999 139.3 390.399 136.2H390.299C389.699 139.3 388.899 142 387.799 144.9L383.499 157.4H379.099L371.199 131H376.299Z" fill="#585B5C"/>
<path d="M425.299 152.4C426.699 153.3 429.199 154.3 431.599 154.3C435.099 154.3 436.799 152.6 436.799 150.4C436.799 148.1 435.399 146.9 431.899 145.6C427.099 143.9 424.899 141.3 424.899 138.1C424.899 133.8 428.399 130.3 433.999 130.3C436.699 130.3 438.999 131.1 440.499 132L439.299 135.5C438.299 134.9 436.299 133.9 433.899 133.9C431.099 133.9 429.499 135.6 429.499 137.5C429.499 139.7 431.099 140.6 434.499 141.9C438.999 143.6 441.399 145.9 441.399 149.8C441.399 154.5 437.799 157.7 431.599 157.7C428.799 157.7 425.999 157.1 424.199 155.9L425.299 152.4Z" fill="#585B5C"/>
<path d="M449.2 131L455 146.5C455.6 148.2 456.3 150.3 456.7 151.9H456.8C457.3 150.3 457.8 148.3 458.5 146.5L463.7 131.1H468.7L461.5 149.9C458 159 455.7 163.6 452.4 166.3C450.1 168.4 447.7 169.1 446.6 169.4L445.4 165.4C446.6 165 448.1 164.2 449.5 163.1C450.8 162.1 452.5 160.3 453.5 157.8C453.8 157.3 453.9 156.9 453.9 156.6C453.9 156.3 453.8 156 453.5 155.3L443.8 131H449.2Z" fill="#585B5C"/>
<path d="M472.1 152.4C473.5 153.3 476 154.3 478.4 154.3C481.9 154.3 483.6 152.6 483.6 150.4C483.6 148.1 482.2 146.9 478.7 145.6C473.9 143.9 471.7 141.3 471.7 138.1C471.7 133.8 475.2 130.3 480.8 130.3C483.5 130.3 485.8 131.1 487.3 132L486.1 135.5C485.1 134.9 483.1 133.9 480.7 133.9C477.9 133.9 476.3 135.6 476.3 137.5C476.3 139.7 477.9 140.6 481.3 141.9C485.8 143.6 488.2 145.9 488.2 149.8C488.2 154.5 484.6 157.7 478.4 157.7C475.6 157.7 472.8 157.1 471 155.9L472.1 152.4Z" fill="#585B5C"/>
<path d="M500 123.5V131H506.9V134.6H500V148.8C500 152 500.9 154 503.6 154C504.9 154 505.8 153.9 506.3 153.6L506.6 157.2C505.7 157.6 504.1 157.8 502.3 157.8C500.1 157.8 498.3 157.2 497.1 155.7C495.7 154.3 495.3 151.9 495.3 148.8V134.4H491.3V130.8H495.4V124.5L500 123.5Z" fill="#585B5C"/>
<path d="M514.7 145.1C514.8 151.6 519 154.3 523.8 154.3C527.2 154.3 529.2 153.7 531 152.9L531.8 156.3C530.1 157.1 527.3 158 523 158C514.9 158 510.1 152.7 510.1 144.7C510.1 136.8 514.8 130.5 522.4 130.5C530.9 130.5 533.3 138 533.3 142.9C533.3 143.9 533.2 144.6 533.2 145.1H514.8H514.7ZM528.8 141.6C528.8 138.5 527.5 133.8 522.2 133.8C517.4 133.8 515.2 138.3 514.8 141.6H528.8Z" fill="#585B5C"/>
<path d="M539.199 138.1C539.199 135.4 539.199 133.2 538.899 131H542.999L543.299 135.3H543.399C544.799 132.8 547.299 130.5 551.699 130.5C555.299 130.5 557.999 132.7 559.199 135.8H559.299C560.099 134.4 561.099 133.2 562.299 132.3C563.899 131.1 565.699 130.5 568.099 130.5C571.599 130.5 576.799 132.8 576.799 141.9V157.4H572.099V142.5C572.099 137.5 570.299 134.4 566.399 134.4C563.699 134.4 561.599 136.5 560.699 138.8C560.399 139.4 560.299 140.4 560.299 141.3V157.6H555.599V141.8C555.599 137.7 553.799 134.6 550.199 134.6C547.199 134.6 544.999 137.1 544.299 139.4C543.999 140 543.899 141 543.899 141.7V157.6H539.099V138.1H539.199Z" fill="#585B5C"/>
<path d="M583.999 152.4C585.399 153.3 587.899 154.3 590.299 154.3C593.799 154.3 595.499 152.6 595.499 150.4C595.499 148.1 594.099 146.9 590.599 145.6C585.799 143.9 583.599 141.3 583.599 138.1C583.599 133.8 587.099 130.3 592.699 130.3C595.399 130.3 597.699 131.1 599.199 132L597.999 135.5C596.999 134.9 594.999 133.9 592.599 133.9C589.799 133.9 588.199 135.6 588.199 137.5C588.199 139.7 589.799 140.6 593.199 141.9C597.699 143.6 600.099 145.9 600.099 149.8C600.099 154.5 596.499 157.7 590.299 157.7C587.499 157.7 584.699 157.1 582.899 155.9L583.999 152.4Z" fill="#585B5C"/>
</svg>
