<svg width="241" height="57" viewBox="0 0 241 57" fill="none" xmlns="http://www.w3.org/2000/svg">
<path d="M239.429 27.4499H236.279C236.129 23.5499 233.129 21.7999 229.529 21.7999C226.729 21.7999 223.429 22.8999 223.429 26.2499C223.429 29.0499 226.629 30.0499 228.779 30.5999L232.979 31.5499C236.579 32.0999 240.329 34.1999 240.329 38.6999C240.329 44.2999 234.779 46.4499 229.979 46.4499C223.979 46.4499 219.879 43.6499 219.379 37.3499H222.529C222.779 41.5999 225.929 43.7999 230.129 43.7999C233.079 43.7999 237.179 42.4999 237.179 38.8999C237.179 35.8999 234.379 34.8999 231.529 34.1999L227.479 33.2999C223.379 32.1999 220.279 30.7999 220.279 26.3999C220.279 21.1499 225.429 19.1499 229.979 19.1499C235.129 19.1499 239.229 21.8499 239.429 27.4499Z" fill="#FF5A00"/>
<path d="M189.969 45.6999L181.669 19.8999H185.019L191.619 41.9999H191.719L198.019 19.8999H201.569L207.869 41.9999H207.969L214.569 19.8999H217.919L209.619 45.6999H206.169L199.819 23.9999H199.719L193.419 45.6999H189.969Z" fill="#FF5A00"/>
<path d="M167.886 19.1499C175.786 19.1499 180.086 25.3999 180.086 32.7999C180.086 40.1999 175.786 46.4499 167.886 46.4499C159.986 46.4499 155.686 40.1999 155.686 32.7999C155.686 25.3999 159.986 19.1499 167.886 19.1499ZM167.886 21.7999C161.836 21.7999 158.836 27.2999 158.836 32.7999C158.836 38.2999 161.836 43.7999 167.886 43.7999C173.936 43.7999 176.936 38.2999 176.936 32.7999C176.936 27.2999 173.936 21.7999 167.886 21.7999Z" fill="#FF5A00"/>
<path d="M130.825 32.8C130.825 38.15 133.275 43.8 139.275 43.8C145.975 43.8 148.325 38.15 148.325 32.8C148.325 27.45 145.975 21.8 139.275 21.8C133.275 21.8 130.825 27.45 130.825 32.8ZM151.475 10V45.7H148.575V40.8H148.475C147.125 44.15 143.025 46.45 139.275 46.45C131.425 46.45 127.675 40.1 127.675 32.8C127.675 25.5 131.425 19.15 139.275 19.15C143.125 19.15 146.875 21.1 148.225 24.8H148.325V10H151.475Z" fill="#FF5A00"/>
<path d="M102.369 45.6999V19.8999H105.519V24.3499H105.619C106.769 21.2499 110.219 19.1499 113.869 19.1499C121.119 19.1499 123.319 22.9499 123.319 29.0999V45.6999H120.169V29.5999C120.169 25.1499 118.719 21.7999 113.619 21.7999C108.619 21.7999 105.619 25.5999 105.519 30.6499V45.6999H102.369Z" fill="#FF5A00"/>
<path d="M93.7402 45.7V19.9H96.8902V45.7H93.7402ZM93.7402 15.05V10H96.8902V15.05H93.7402Z" fill="#FF5A00"/>
<path d="M62.8303 45.6999L54.5303 19.8999H57.8803L64.4803 41.9999H64.5803L70.8803 19.8999H74.4303L80.7303 41.9999H80.8303L87.4303 19.8999H90.7803L82.4803 45.6999H79.0303L72.6803 23.9999H72.5803L66.2803 45.6999H62.8303Z" fill="#FF5A00"/>
<path d="M48.4512 45.7V10H51.6012V45.7H48.4512Z" fill="#FF5A00"/>
<path d="M39.4732 35.6999V31.5999H39.3732C38.9732 32.3499 37.5732 32.5999 36.7232 32.7499C31.3732 33.6999 24.7232 33.6499 24.7232 38.6999C24.7232 41.8499 27.5232 43.7999 30.4732 43.7999C35.2732 43.7999 39.5232 40.7499 39.4732 35.6999ZM25.8232 27.7999H22.6732C22.9732 21.7499 27.2232 19.1499 33.1232 19.1499C37.6732 19.1499 42.6232 20.5499 42.6232 27.4499V41.1499C42.6232 42.3499 43.2232 43.0499 44.4732 43.0499C44.8232 43.0499 45.2232 42.9499 45.4732 42.8499V45.4999C44.7732 45.6499 44.2732 45.6999 43.4232 45.6999C40.2232 45.6999 39.7232 43.8999 39.7232 41.1999H39.6232C37.4232 44.5499 35.1732 46.4499 30.2232 46.4499C25.4732 46.4499 21.5732 44.0999 21.5732 38.8999C21.5732 31.6499 28.6232 31.3999 35.4232 30.5999C38.0232 30.2999 39.4732 29.9499 39.4732 27.0999C39.4732 22.8499 36.4232 21.7999 32.7232 21.7999C28.8232 21.7999 25.9232 23.5999 25.8232 27.7999Z" fill="#FF5A00"/>
<path d="M13.6783 12.1499V19.8999H18.9283V22.5499H13.6783V39.9499C13.6783 41.9999 13.9783 43.1999 16.2283 43.3499C17.1283 43.3499 18.0283 43.2999 18.9283 43.1999V45.8999C17.9783 45.8999 17.0783 45.9999 16.1283 45.9999C11.9283 45.9999 10.4783 44.5999 10.5283 40.1999V22.5499H6.02832V19.8999H10.5283V12.1499H13.6783Z" fill="#FF5A00"/>
<path d="M0 45.7V19.9H3.15V45.7H0ZM0 15.05V10H3.15V15.05H0Z" fill="#FF5A00"/>
</svg>
