<svg viewBox="0 0 80 80" xmlns="http://www.w3.org/2000/svg"><g fill="#43b02a"><path d="m68.31 10.47-1.75-1v61.07l1.75-1z"/><path d="m69.19 10.98v58.06l1.73-.99v-56.08z"/><path d="m45.94 37.57c-2.44-.8-3.34-2.35-4.06-3.6-.61-1.06-1.06-1.82-2.42-2.26-1.37-.44-2.18-.1-3.31.39-1.33.57-2.97 1.28-5.4.48-2.44-.8-3.34-2.35-4.07-3.6-.62-1.05-1.06-1.82-2.42-2.27-1.35-.44-2.16-.09-3.27.39-1.32.57-2.97 1.28-5.41.48-2.45-.8-3.36-2.35-4.08-3.6-.61-1.05-1.05-1.81-2.4-2.26l.94-2.85c2.43.81 3.33 2.35 4.05 3.6.61 1.05 1.06 1.82 2.42 2.26 1.37.45 2.18.1 3.3-.39 1.32-.57 2.97-1.28 5.4-.48 2.44.81 3.34 2.36 4.07 3.6.61 1.05 1.06 1.81 2.41 2.26 1.36.44 2.17.1 3.29-.39 1.33-.57 2.98-1.28 5.42-.48 2.45.8 3.36 2.36 4.08 3.61.61 1.05 1.05 1.81 2.4 2.25l-.93 2.85z"/><path d="m48.43 37.92-5.85.93 4.93-6.78z"/><path d="m17.74 49.07c1.14-.21 2.13-.16 3 0v-19.19c-.82.29-1.83.52-3 .53v18.65z"/><path d="m63.97 7.98-46.23 3.47v10.98c.2-.02.48-.13 1.07-.38.52-.22 1.16-.5 1.93-.71v-7.1l43.23-3.24v58.02l-43.23-3.24v-9.34c-.05-.02-.11-.05-.16-.07-1.05-.45-1.27-.53-1.9-.32-.45.15-.64.29-.93.75v11.77l46.23 3.47 1.71-.97v-62.11l-1.71-.98z"/><path d="m11.57 60c2.44-.8 3.34-2.35 4.06-3.6.61-1.06 1.06-1.82 2.42-2.26 1.37-.44 2.18-.1 3.31.39 1.33.57 2.97 1.28 5.4.48 2.44-.8 3.34-2.35 4.07-3.6.62-1.05 1.06-1.82 2.42-2.27 1.35-.44 2.16-.09 3.27.39 1.32.57 2.97 1.28 5.41.48 2.45-.8 3.36-2.35 4.08-3.6.61-1.05 1.05-1.81 2.4-2.26l-.94-2.85c-2.43.81-3.33 2.35-4.05 3.6-.61 1.05-1.06 1.82-2.42 2.26-1.37.45-2.18.1-3.3-.39-1.32-.57-2.97-1.28-5.4-.48-2.44.81-3.34 2.36-4.07 3.6-.61 1.05-1.06 1.81-2.41 2.26-1.36.44-2.17.1-3.29-.39-1.33-.57-2.98-1.28-5.42-.48-2.45.8-3.36 2.36-4.08 3.61-.61 1.05-1.05 1.81-2.4 2.25l.93 2.85z"/><path d="m9.08 60.35 5.85.93-4.92-6.78z"/></g></svg>