<svg viewBox="0 0 80 80" xmlns="http://www.w3.org/2000/svg"><g fill="#43b02a"><path d="m60.14 7.98-46.23 3.47v57.1l46.23 3.47 5.95-3.97v-56.08l-5.95-3.98zm-43.23 57.79v-51.54l43.23-3.24v58.02z"/><path d="m51.14 38.11h5.75v2.51h-5.75z"/><path d="m48.88 45.85h2.51v5.75h-2.51z" transform="matrix(.70710678 -.70710678 .70710678 .70710678 -19.77 49.73)"/><path d="m39.52 49.72h2.51v5.75h-2.51z"/><path d="m47.27 28.74h5.75v2.51h-5.75z" transform="matrix(.70710678 -.70710678 .70710678 .70710678 -6.53 44.24)"/><path d="m39.52 23.25h2.51v5.75h-2.51z"/><path d="m36.51 23.39h-2.42v2.93l-1.97-1.92-1.69 1.73 3.66 3.57v6.86l-4.7-4.69v-4.31h-2.41v1.89l-1.59-1.58-1.71 1.71 1.49 1.49h-2.13v2.42h4.55l4.68 4.67-5.98-.13-3.42-3.43-1.72 1.72 1.65 1.64-2.63-.06-.06 2.42 2.76.06-1.86 1.85 1.72 1.71 3.49-3.49 5.47.12-4.25 4.25h-4.49v2.42h2.07l-1.43 1.43 1.71 1.71 1.68-1.68v3.04h2.41v-5.45l4.7-4.7v8.06l-3.58 3.58 1.71 1.71 1.87-1.87v2.41h2.42z"/><path d="m49.28 39.36c0-4.69-3.81-8.5-8.5-8.5-.47 0-.89.05-1.29.14v2.6c.39-.14.81-.23 1.29-.23 3.3 0 5.99 2.69 5.99 5.99s-2.69 5.99-5.99 5.99c-.49 0-.91-.07-1.29-.21v2.59c.4.08.82.13 1.29.13 4.69 0 8.5-3.81 8.5-8.5z"/></g></svg>