<svg viewBox="0 0 80 80" xmlns="http://www.w3.org/2000/svg"><g fill="#43b02a"><path d="m38.09 26.18-7.87 2.43v3.1l7.87-2.53 9.37 3.01v6.64c.08 6.78-2.89 11.35-9.08 13.97l-.29.12-.29-.12c-6.19-2.63-9.16-7.2-9.08-14v-6.62h.02v-3.13l-2.97.92v8.81c-.09 8.34 3.58 13.25 10.62 16.49l1.71.79 1.71-.79c7.04-3.24 10.71-8.15 10.62-16.47v-8.83l-12.32-3.81z"/><path d="m38.1 33.57 2.04 4.14 4.57.66-3.31 3.23.78 4.55-4.08-2.15-4.09 2.15.78-4.55-3.31-3.23 4.57-.66z"/><path d="m61.34 8.96-1.71-.98-46.23 3.47v57.1l46.23 3.47 1.71-.97zm-1.7 60.05-43.23-3.24v-51.54l43.23-3.24z"/><path d="m63.98 10.47-1.75-1v61.07l1.75-1z"/><path d="m64.86 10.98v58.06l1.73-.99v-56.08z"/></g></svg>