<svg xmlns="http://www.w3.org/2000/svg" viewBox="0 0 162 39" version="1.1"><g id="Group-15-Copy" transform="translate(0 4)"><path d="M30.9993 9.67688C31.0144 9.43808 30.7677 9.26845 30.5445 9.36561L16.2778 15.2516C14.9887 15.7341 13.5436 15.5662 12.4039 14.8053L3.71129 8.99012C3.28161 8.70356 3.03656 8.21608 3.06509 7.70719L2.76633 0.266528C2.78144 0.0326689 2.48771 -0.0908481 2.32322 0.0787819L1.02411 1.42923C0.868017 1.59063 0.765633 1.79155 0.72535 2.00894L0.0187278 10.278C-0.0735863 10.7852 0.181536 11.2908 0.648142 11.528L14.2468 18.4449C15.8968 19.2799 17.8807 19.1663 19.4215 18.1485L29.9503 11.472C30.9339 10.8478 30.9523 10.4032 30.9993 9.67688" transform="translate(130 12)" id="Fill-1" fill="#FFC609" stroke="none"></path><path d="M6.95965 5.5815L8.62164 17.4971C8.67378 17.8463 9.00129 18.0711 9.32391 17.9795L9.96426 17.7979C10.2201 17.7253 10.4026 17.4833 10.4107 17.2015L10.9989 5.44492C11.025 4.61677 10.572 3.85433 9.85509 3.52065L2.71181 0.20288C2.08775 -0.0685579 1.85312 -0.0253353 1.42458 0.0887723L0.196017 0.418993C-0.0304693 0.479505 -0.0712043 0.799352 0.129212 0.923833L6.44965 4.79485C6.77553 4.99367 6.90751 5.20806 6.95965 5.5815" transform="translate(151 3)" id="Fill-3" fill="#FFC609" stroke="none"></path><path d="M13.9942 6.01821L13.369 3.11638C13.2929 2.77243 13.2203 2.59712 12.8603 2.38842L8.94354 0.102687C8.68163 -0.040902 8.53124 -0.022536 8.2254 0.08766L0.827742 2.87094C0.614836 2.95442 0.515141 3.06796 0.489795 3.31507L0.001462 8.71133C-0.0255738 8.9935 0.329271 9.10703 0.493175 8.87662L4.04331 3.68072C4.10245 3.59223 4.19876 3.53546 4.30522 3.52043L9.61267 2.83087C9.75292 2.81918 9.82051 2.85258 9.91007 2.92604L13.5109 6.17181C13.7356 6.3705 14.0465 6.277 13.9942 6.01821" transform="translate(140 4)" id="Fill-5" fill="#F4B511" stroke="none"></path><path d="M1.75231 5.91388C1.8745 6.0195 2.04357 6.05528 2.10718 5.86106L2.81861 3.41464C2.88055 3.20339 2.9927 3.14376 3.15842 3.14376L5.47517 3.14376C5.68274 3.14376 5.75807 3.27324 5.80326 3.37886L6.32888 4.62422C6.39417 4.77755 6.60174 4.79629 6.69046 4.65489L7.80865 2.88481C8.07816 2.4589 8.05472 2.13862 7.79024 1.85581L6.68711 0.688823C6.44773 0.440092 6.28536 0.269728 5.85683 0.235656L2.38171 0.00225743C2.02851 -0.0198898 1.82261 0.119808 1.64517 0.470757L0.0699868 3.73322C-0.0756468 4.05691 0.0113986 4.44023 0.280904 4.66852L1.75231 5.91388Z" transform="translate(143 8)" id="Fill-7" fill="#E49B17" stroke="none"></path><path d="M14.1452 0.526416L11.3513 0.0641985C10.855 -0.023843 10.6359 -0.0577052 10.1793 0.206419L1.33966 5.28743C0.219134 5.95621 -0.0331916 6.37948 0.00332918 7.29715L0.614222 18.1195C0.597622 18.4361 0.728764 18.7409 0.967809 18.944L7.27926 24.2959C8.0296 24.9325 9.0389 25.1543 9.98014 24.8919L19.2797 22.2574C21.0243 21.763 22.1648 20.0581 21.9805 18.2228L21.1588 10.0417C21.1289 9.73183 20.7089 9.67427 20.5994 9.96548L19.1933 13.7343L17.3059 18.7883C17.0486 19.4841 16.431 19.9734 15.7089 20.0615L9.91042 20.7455C8.87621 20.864 8.63883 20.7252 7.86525 19.9311L3.20886 15.0194C2.5963 14.3523 2.59298 13.9765 2.73077 13.0368L3.65541 6.70117C3.74173 6.29144 3.87287 6.12213 4.19326 5.97483L14.2215 1.24091C14.5552 1.09361 14.5021 0.595834 14.1452 0.526416" transform="translate(135 0)" id="Fill-9" fill="#FFC10E" stroke="none"></path><path d="M10.9855 0.271049L9.06766 5.23222C8.9256 5.59933 8.57738 5.84581 8.18758 5.8563L2.50348 5.99965C2.11715 6.01014 1.76201 5.78463 1.60089 5.42976L0.0226479 1.92128C-0.0761005 1.70276 0.168172 1.49124 0.367401 1.6206L3.22417 3.49109C3.40262 3.60822 3.61397 3.6659 3.82706 3.65192L6.71675 3.47186C6.94197 3.45788 7.15332 3.36698 7.3179 3.21139L10.6684 0.0542822C10.8209 -0.0890639 11.0617 0.0752597 10.9855 0.271049" transform="translate(141 13)" id="Fill-11" fill="#ECAA14" stroke="none"></path><path d="M125.074 3.83241C126.157 3.83241 127 3.00333 127 1.9162C127 0.829079 126.157 0 125.074 0C123.991 0 123.15 0.829079 123.15 1.9162C123.15 3.00333 123.991 3.83241 125.074 3.83241ZM126.811 1.9162C126.811 0.935627 126.059 0.178135 125.074 0.178135C124.089 0.178135 123.339 0.935627 123.339 1.9162C123.339 2.89678 124.089 3.65427 125.074 3.65427C126.059 3.65427 126.811 2.89678 126.811 1.9162ZM24.0706 21L24.0706 0.196448L18.0554 0.196448L12.2075 15.0866L6.35786 0.196448L0 0.196448L0 21L4.19288 21L4.19288 7.59656L9.69979 21L14.2053 21L19.4731 7.21032L19.4731 21L24.0706 21ZM43.1843 21L48.7948 21L41.0059 0.196448L34.9172 0.196448L26.7087 21L31.8127 21L33.4544 16.4018L41.6078 16.4018L43.1843 21ZM63.1489 21L68.9384 21C68.0139 19.6931 67.2064 18.4745 66.6413 17.5239L64.4312 13.7481C63.7157 12.5594 62.9399 12.0849 61.5674 11.7569L61.5674 11.6987C64.6117 11.0744 66.4608 8.8152 66.4608 6.05161C66.4608 3.46615 65.2671 0.196448 59.807 0.196448L51.4346 0.196448L51.4346 21L56.4634 21L56.4634 12.8574L57.0602 12.8574C57.7758 12.8574 58.2238 13.0355 58.7621 13.9861L61.6861 19.0089C61.9854 19.485 62.5822 20.4956 63.1489 21ZM90.09 0.196448L82.388 21L76.1204 21L68.4218 0.196448L74.36 0.196448L79.5526 16.4234L84.8656 0.196448L90.09 0.196448ZM97.7268 21L92.5342 21L92.5342 0.196448L97.7268 0.196448L97.7268 21ZM116.576 21L106.624 8.36903L106.624 21L102.207 21L102.207 0.196448L106.34 0.196448L115.921 12.4412L115.921 0.196448L120.321 0.196448L120.321 21L116.576 21ZM125.977 2.97503C125.928 2.90844 125.862 2.81021 125.83 2.75194L125.532 2.26082C125.417 2.07103 125.352 2.01443 125.236 1.98113L125.245 1.97281C125.599 1.93285 125.796 1.70144 125.796 1.40677C125.796 1.02053 125.541 0.840733 125.146 0.840733L124.502 0.840733L124.502 2.97503L124.685 2.97503L124.685 2.0394L124.955 2.0394C125.154 2.0394 125.236 2.08768 125.343 2.26915L125.656 2.77691C125.698 2.84351 125.739 2.91676 125.788 2.97503L125.977 2.97503ZM124.989 1.88291C125.442 1.88291 125.622 1.69478 125.622 1.42342C125.622 1.12042 125.45 1.00555 125.129 1.00555L124.685 1.00555L124.685 1.88291L124.989 1.88291ZM61.5373 6.40788C61.5373 4.62486 60.6713 3.64262 58.2238 3.64262L56.4333 3.64262L56.4333 9.23141L58.3726 9.23141C60.3135 9.23141 61.5373 8.3091 61.5373 6.40788ZM40.3723 12.7758L37.6322 4.59489L34.7083 12.7758L40.3723 12.7758Z" transform="translate(0 5)" id="Fill-13" fill="#000000" fill-rule="evenodd" stroke="none"></path></g></svg>